<svg width="131" height="20" viewBox="0 0 131 20" fill="none" xmlns="http://www.w3.org/2000/svg">
<g id="logo" clip-path="url(#clip0_501_1110)">
<path id="Vector" d="M4.96165 5.40748C4.87057 5.03116 4.89214 4.63327 4.94247 4.42713C5.06951 3.83269 5.47459 3.16874 6.65149 3.16874C7.74449 3.16874 8.38686 3.84708 8.38686 4.86337V6.0187H13.0441V4.70757C13.0417 0.647171 9.38159 0 6.74257 0C3.42522 0 0.716683 1.10019 0.220518 4.14909C0.0838926 4.98562 0.0623202 5.72148 0.258869 6.66587C1.06663 10.4818 7.70134 11.5868 8.6673 14.0005C8.84708 14.4487 8.79434 15.0264 8.70326 15.3787C8.54986 16.0067 8.128 16.6395 6.87919 16.6395C5.71189 16.6395 5.01438 15.9612 5.01438 14.9401L5.00719 13.1448H0V14.5709C0 18.744 3.27661 20 6.78571 20C10.2948 20 12.9291 18.8495 13.3797 15.7263C13.605 14.1155 13.4348 13.0681 13.3605 12.6702C12.5719 8.7536 5.49377 7.59108 4.96165 5.40748ZM65.6687 5.45302C65.5848 5.08389 65.6088 4.69319 65.652 4.48706C65.7862 3.89022 66.1865 3.23826 67.3442 3.23826C68.4228 3.23826 69.0532 3.9094 69.0532 4.9185V6.05944H73.6553V4.75791C73.6553 0.735858 70.0503 0.103068 67.4377 0.103068C64.1491 0.103068 61.4645 1.18648 60.9732 4.21381C60.8437 5.03835 60.8102 5.76941 61.0187 6.70182C61.8193 10.4746 68.3869 11.57 69.3408 13.9573C69.5086 14.4104 69.4607 14.9856 69.3744 15.326C69.2306 15.9468 68.8135 16.5724 67.5743 16.5724C66.4118 16.5724 65.7143 15.9036 65.7143 14.8969V13.1064H60.7598V14.5302C60.7598 18.6553 63.9909 19.9017 67.4736 19.9017C70.9564 19.9017 73.5618 18.7632 74.0029 15.6735C74.2138 14.0772 74.0556 13.0393 73.9693 12.6462C73.1975 8.77517 66.1961 7.61266 65.6663 5.45062L65.6687 5.45302ZM108.056 15.6232L103.66 0.594439H96.733V19.0676H101.316L101.05 3.55705L105.772 19.0676H112.416V0.594439H107.804L108.058 15.6232H108.056ZM19.9856 0.594439L16.5268 19.2617H21.57L24.1755 1.98226L26.7186 19.2617H31.7258L28.2814 0.594439H19.9832H19.9856ZM48.1807 0.594439L45.8245 15.187L43.4708 0.594439H35.8557L35.453 19.2617H40.1174L40.2445 1.98226L43.454 19.2617H48.1879L51.3998 1.98226L51.5268 19.2617H56.2033L55.7862 0.594439H48.1807ZM91.558 0.594439H86.836V14.4032C86.8432 14.6429 86.836 14.9137 86.7953 15.1127C86.697 15.5753 86.3039 16.4693 85.0024 16.4693C83.7009 16.4693 83.3126 15.5777 83.2215 15.1127C83.1735 14.9137 83.1687 14.6429 83.1735 14.4032V0.594439H78.454V13.9741C78.4492 14.3193 78.4755 15.024 78.4947 15.2085C78.8207 18.6961 81.5676 19.8274 85 19.8274C88.4324 19.8274 91.1841 18.6961 91.5173 15.2085C91.5436 15.024 91.5772 14.3193 91.558 13.9741V0.594439ZM123.972 8.78476V11.5077H125.884V14.209C125.889 14.4511 125.877 14.71 125.837 14.9185C125.76 15.4219 125.283 16.28 123.924 16.28C122.565 16.28 122.104 15.4219 122.023 14.9185C121.989 14.71 121.975 14.4487 121.975 14.209V5.67593C121.975 5.37392 121.997 5.04314 122.059 4.79386C122.152 4.33845 122.555 3.44199 123.914 3.44199C125.343 3.44199 125.698 4.38638 125.779 4.79386C125.832 5.06232 125.837 5.51294 125.837 5.51294V6.54842H130.537V5.9372C130.537 5.9372 130.558 5.29722 130.501 4.70278C130.149 1.20086 127.263 0.0934803 123.955 0.0934803C120.647 0.0934803 117.814 1.21045 117.402 4.70278C117.363 5.02157 117.308 5.59684 117.308 5.9372V13.7848C117.308 14.1275 117.32 14.3912 117.383 15.0168C117.689 18.4228 120.64 19.6285 123.941 19.6285C127.241 19.6285 130.192 18.4204 130.506 15.0168C130.561 14.3912 130.568 14.1275 130.575 13.7848V8.78236H123.972V8.78476Z" fill="white"/>
</g>
<defs>
<clipPath id="clip0_501_1110">
<rect width="130.575" height="20" fill="white"/>
</clipPath>
</defs>
</svg>
