<svg width="283" height="56" viewBox="0 0 283 56" fill="none" xmlns="http://www.w3.org/2000/svg">
<path d="M6.912 23.24C3.768 23.24 1.68 21.896 0.072 20.096L3.048 17.744C3.936 19.28 5.28 20.12 6.888 20.12C8.616 20.12 9.552 18.992 9.552 17.768C9.552 16.304 7.752 15.824 5.904 15.248C3.528 14.48 0.936 13.592 0.936 10.256C0.936 7.448 3.384 5.24 6.744 5.24C9.552 5.24 11.208 6.32 12.624 7.784L9.936 9.824C9.192 8.696 8.136 8.144 6.768 8.144C5.16 8.144 4.32 9.008 4.32 10.136C4.32 11.552 5.976 11.96 7.896 12.608C10.272 13.376 12.96 14.432 12.96 17.792C12.96 20.552 10.752 23.24 6.912 23.24ZM20.979 23.288C17.595 23.288 14.067 20.6 14.067 15.992C14.067 11.336 17.475 8.672 21.027 8.672C22.875 8.672 24.507 9.416 25.539 10.64V8.96H28.779V23H25.539V21.176C24.507 22.496 22.827 23.288 20.979 23.288ZM21.507 20.312C23.931 20.312 25.707 18.368 25.707 15.944C25.707 13.544 23.931 11.624 21.507 11.624C19.107 11.624 17.259 13.52 17.259 15.944C17.259 18.392 19.107 20.312 21.507 20.312ZM30.5018 23V8.96H33.7178V10.592C34.6058 9.416 35.9978 8.672 37.7258 8.672C39.9338 8.672 41.4458 9.56 42.2858 11.096C43.2458 9.632 44.8778 8.672 46.8938 8.672C50.7098 8.672 52.6058 10.88 52.6058 14.552V23H49.2938V14.816C49.2938 12.776 48.2618 11.48 46.2458 11.48C44.4938 11.48 43.1498 12.68 43.1498 15.152V23H39.8618V14.72C39.8618 12.704 38.8538 11.48 36.9098 11.48C35.0858 11.48 33.7418 12.728 33.7418 15.224V23H30.5018ZM59.7349 23.288C56.5909 23.288 54.6229 22.088 53.4949 19.88L56.4949 18.44C57.1669 19.76 58.3429 20.48 59.8789 20.48C61.4869 20.48 62.2789 19.712 62.2789 18.776C62.2789 17.744 60.7189 17.552 58.9909 17.168C56.5909 16.664 54.0709 15.896 54.0709 12.944C54.0709 10.688 56.2549 8.648 59.5909 8.648C62.4469 8.648 64.2469 9.752 65.3269 11.552L62.5669 12.944C61.9909 11.96 60.9349 11.336 59.5909 11.336C58.0549 11.336 57.3349 12.056 57.3349 12.848C57.3349 13.784 58.4389 14.024 60.5509 14.48C62.8549 14.936 65.4949 15.752 65.4949 18.704C65.4949 20.672 63.7429 23.288 59.7349 23.288ZM79.4076 8.96V23H76.1916V21.392C75.3036 22.568 73.9596 23.288 72.1596 23.288C68.7996 23.288 66.7596 21.104 66.7596 17.288V8.96H70.0476V16.952C70.0476 19.136 71.0076 20.48 73.0476 20.48C74.8476 20.48 76.1676 19.136 76.1676 16.664V8.96H79.4076ZM81.408 23V8.96H84.624V10.688C85.56 9.464 87 8.672 88.824 8.672C92.352 8.672 94.392 10.856 94.392 14.672V23H91.104V15.008C91.104 12.824 90.048 11.48 87.936 11.48C86.088 11.48 84.648 12.824 84.648 15.296V23H81.408ZM107.307 22.76V21.128C106.275 22.472 104.619 23.288 102.723 23.288C99.3394 23.288 95.8114 20.6 95.8114 15.992C95.8114 11.336 99.2194 8.672 102.771 8.672C104.619 8.672 106.251 9.488 107.283 10.76V8.96H110.523V22.64C110.523 26.576 108.003 29.792 103.275 29.792C99.6274 29.792 97.3474 28.088 96.0754 25.76L98.9554 24.008C99.9874 25.904 101.091 26.816 103.323 26.816C105.771 26.816 107.307 24.896 107.307 22.76ZM103.251 20.312C105.675 20.312 107.451 18.368 107.451 15.944C107.451 13.544 105.675 11.624 103.251 11.624C100.851 11.624 99.0034 13.52 99.0034 15.944C99.0034 18.392 100.851 20.312 103.251 20.312ZM117.819 23L124.059 5.48H127.347L133.587 23H130.179L129.099 19.88H122.307L121.227 23H117.819ZM125.715 10.112L123.411 16.76H128.019L125.715 10.112ZM141.347 23.288C137.963 23.288 134.435 20.6 134.435 15.992C134.435 11.336 137.843 8.672 141.395 8.672C143.219 8.672 144.851 9.392 145.883 10.616V5.24H149.147V23H145.907V21.176C144.875 22.496 143.195 23.288 141.347 23.288ZM141.875 20.312C144.299 20.312 146.075 18.368 146.075 15.944C146.075 13.544 144.299 11.624 141.875 11.624C139.475 11.624 137.627 13.52 137.627 15.944C137.627 18.392 139.475 20.312 141.875 20.312ZM155.769 23L150.417 8.96H153.801L157.425 18.848L160.977 8.96H164.313L159.033 23H155.769ZM171.842 23.288C168.458 23.288 164.93 20.6 164.93 15.992C164.93 11.336 168.338 8.672 171.89 8.672C173.738 8.672 175.37 9.416 176.402 10.64V8.96H179.642V23H176.402V21.176C175.37 22.496 173.69 23.288 171.842 23.288ZM172.37 20.312C174.794 20.312 176.57 18.368 176.57 15.944C176.57 13.544 174.794 11.624 172.37 11.624C169.97 11.624 168.122 13.52 168.122 15.944C168.122 18.392 169.97 20.312 172.37 20.312ZM181.365 23V8.96H184.581V10.688C185.517 9.464 186.957 8.672 188.781 8.672C192.309 8.672 194.349 10.856 194.349 14.672V23H191.061V15.008C191.061 12.824 190.005 11.48 187.893 11.48C186.045 11.48 184.605 12.824 184.605 15.296V23H181.365ZM203.208 23.288C199.104 23.288 195.912 20.024 195.912 15.992C195.912 11.888 199.104 8.672 203.208 8.672C206.352 8.672 208.824 10.472 209.904 13.016L207 14.24C206.352 12.704 204.96 11.72 203.232 11.72C200.856 11.72 199.08 13.616 199.08 15.992C199.08 18.32 200.856 20.24 203.256 20.24C205.08 20.24 206.4 19.16 207.048 17.624L209.952 18.872C208.848 21.464 206.472 23.288 203.208 23.288ZM218.024 23.288C213.608 23.288 210.608 20.072 210.608 16.016C210.608 11.912 213.8 8.672 217.904 8.672C222.08 8.672 225.128 11.744 225.128 15.896V17.12H213.704C214.16 19.112 215.72 20.432 218.024 20.432C219.848 20.432 221.24 19.472 221.912 17.96L224.576 19.496C223.352 21.776 221.192 23.288 218.024 23.288ZM217.904 11.528C215.96 11.528 214.448 12.68 213.872 14.408H221.84C221.36 12.512 219.92 11.528 217.904 11.528ZM233.035 23.288C229.651 23.288 226.123 20.6 226.123 15.992C226.123 11.336 229.531 8.672 233.083 8.672C234.907 8.672 236.539 9.392 237.571 10.616V5.24H240.835V23H237.595V21.176C236.563 22.496 234.883 23.288 233.035 23.288ZM233.563 20.312C235.987 20.312 237.763 18.368 237.763 15.944C237.763 13.544 235.987 11.624 233.563 11.624C231.163 11.624 229.315 13.52 229.315 15.944C229.315 18.392 231.163 20.312 233.563 20.312Z" fill="black"/>
<path d="M1.128 49V31.48H4.392V49H1.128ZM6.58444 49V34.96H9.80044V36.688C10.7364 35.464 12.1764 34.672 14.0004 34.672C17.5284 34.672 19.5684 36.856 19.5684 40.672V49H16.2804V41.008C16.2804 38.824 15.2244 37.48 13.1124 37.48C11.2644 37.48 9.82444 38.824 9.82444 41.296V49H6.58444ZM26.7238 49.288C23.5798 49.288 21.6118 48.088 20.4838 45.88L23.4838 44.44C24.1558 45.76 25.3318 46.48 26.8678 46.48C28.4758 46.48 29.2678 45.712 29.2678 44.776C29.2678 43.744 27.7078 43.552 25.9798 43.168C23.5798 42.664 21.0598 41.896 21.0598 38.944C21.0598 36.688 23.2438 34.648 26.5798 34.648C29.4358 34.648 31.2358 35.752 32.3158 37.552L29.5558 38.944C28.9798 37.96 27.9238 37.336 26.5798 37.336C25.0438 37.336 24.3238 38.056 24.3238 38.848C24.3238 39.784 25.4278 40.024 27.5398 40.48C29.8438 40.936 32.4838 41.752 32.4838 44.704C32.4838 46.672 30.7318 49.288 26.7238 49.288ZM33.1273 37.864V34.96H35.5273V32.824L38.7913 30.592V34.96H41.6473V37.864H38.7913V43.12C38.7913 45.568 39.1513 45.952 41.6473 45.952V49H41.1913C36.8473 49 35.5273 47.608 35.5273 43.144V37.864H33.1273ZM43.2173 49V34.96H46.4813V49H43.2173ZM42.8093 31.528C42.8093 30.304 43.6013 29.488 44.8493 29.488C46.1213 29.488 46.8893 30.304 46.8893 31.528C46.8893 32.752 46.1213 33.544 44.8493 33.544C43.5293 33.544 42.8093 32.752 42.8093 31.528ZM47.8461 37.864V34.96H50.2461V32.824L53.5101 30.592V34.96H56.3661V37.864H53.5101V43.12C53.5101 45.568 53.8701 45.952 56.3661 45.952V49H55.9101C51.5661 49 50.2461 47.608 50.2461 43.144V37.864H47.8461ZM70.584 34.96V49H67.368V47.392C66.48 48.568 65.136 49.288 63.336 49.288C59.976 49.288 57.936 47.104 57.936 43.288V34.96H61.224V42.952C61.224 45.136 62.184 46.48 64.224 46.48C66.024 46.48 67.344 45.136 67.344 42.664V34.96H70.584ZM71.9633 37.864V34.96H74.3633V32.824L77.6273 30.592V34.96H80.4833V37.864H77.6273V43.12C77.6273 45.568 77.9873 45.952 80.4833 45.952V49H80.0273C75.6833 49 74.3633 47.608 74.3633 43.144V37.864H71.9633ZM88.5444 49.288C84.1284 49.288 81.1284 46.072 81.1284 42.016C81.1284 37.912 84.3204 34.672 88.4244 34.672C92.6004 34.672 95.6484 37.744 95.6484 41.896V43.12H84.2244C84.6804 45.112 86.2404 46.432 88.5444 46.432C90.3684 46.432 91.7604 45.472 92.4324 43.96L95.0964 45.496C93.8724 47.776 91.7124 49.288 88.5444 49.288ZM88.4244 37.528C86.4804 37.528 84.9684 38.68 84.3924 40.408H92.3604C91.8804 38.512 90.4404 37.528 88.4244 37.528ZM109.799 49.288C105.743 49.288 102.527 46.024 102.527 41.992C102.527 37.888 105.743 34.672 109.799 34.672C113.831 34.672 117.071 37.888 117.071 41.992C117.071 46.024 113.831 49.288 109.799 49.288ZM109.799 46.24C112.103 46.24 113.879 44.32 113.879 41.992C113.879 39.616 112.103 37.72 109.799 37.72C107.471 37.72 105.719 39.616 105.719 41.992C105.719 44.32 107.471 46.24 109.799 46.24ZM118.318 37.864V34.96H120.694V34.936C120.694 30.904 122.302 29.32 126.574 29.32H126.862V32.32C124.27 32.32 123.982 32.92 123.982 34.96H126.862V37.864H123.982V49H120.694V37.864H118.318ZM138.808 49V34.6H134.128V31.48H146.776V34.6H142.072V49H138.808ZM154.815 49.288C150.399 49.288 147.399 46.072 147.399 42.016C147.399 37.912 150.591 34.672 154.695 34.672C158.871 34.672 161.919 37.744 161.919 41.896V43.12H150.495C150.951 45.112 152.511 46.432 154.815 46.432C156.639 46.432 158.031 45.472 158.703 43.96L161.367 45.496C160.143 47.776 157.983 49.288 154.815 49.288ZM154.695 37.528C152.751 37.528 151.239 38.68 150.663 40.408H158.631C158.151 38.512 156.711 37.528 154.695 37.528ZM170.451 49.288C166.347 49.288 163.155 46.024 163.155 41.992C163.155 37.888 166.347 34.672 170.451 34.672C173.595 34.672 176.067 36.472 177.147 39.016L174.243 40.24C173.595 38.704 172.203 37.72 170.475 37.72C168.099 37.72 166.323 39.616 166.323 41.992C166.323 44.32 168.099 46.24 170.499 46.24C172.323 46.24 173.643 45.16 174.291 43.624L177.195 44.872C176.091 47.464 173.715 49.288 170.451 49.288ZM178.663 49V31.24H181.903V36.64C182.863 35.416 184.303 34.672 186.103 34.672C189.631 34.672 191.671 36.856 191.671 40.672V49H188.359V41.032C188.359 38.824 187.303 37.48 185.191 37.48C183.367 37.48 181.927 38.848 181.927 41.296V49H178.663ZM193.475 49V34.96H196.691V36.688C197.627 35.464 199.067 34.672 200.891 34.672C204.419 34.672 206.459 36.856 206.459 40.672V49H203.171V41.008C203.171 38.824 202.115 37.48 200.003 37.48C198.155 37.48 196.715 38.824 196.715 41.296V49H193.475ZM215.102 49.288C211.046 49.288 207.83 46.024 207.83 41.992C207.83 37.888 211.046 34.672 215.102 34.672C219.134 34.672 222.374 37.888 222.374 41.992C222.374 46.024 219.134 49.288 215.102 49.288ZM215.102 46.24C217.406 46.24 219.182 44.32 219.182 41.992C219.182 39.616 217.406 37.72 215.102 37.72C212.774 37.72 211.022 39.616 211.022 41.992C211.022 44.32 212.774 46.24 215.102 46.24ZM223.754 49V31.24H227.018V49H223.754ZM235.654 49.288C231.598 49.288 228.382 46.024 228.382 41.992C228.382 37.888 231.598 34.672 235.654 34.672C239.686 34.672 242.926 37.888 242.926 41.992C242.926 46.024 239.686 49.288 235.654 49.288ZM235.654 46.24C237.958 46.24 239.734 44.32 239.734 41.992C239.734 39.616 237.958 37.72 235.654 37.72C233.326 37.72 231.574 39.616 231.574 41.992C231.574 44.32 233.326 46.24 235.654 46.24ZM255.463 48.76V47.128C254.431 48.472 252.775 49.288 250.879 49.288C247.495 49.288 243.967 46.6 243.967 41.992C243.967 37.336 247.375 34.672 250.927 34.672C252.775 34.672 254.407 35.488 255.439 36.76V34.96H258.679V48.64C258.679 52.576 256.159 55.792 251.431 55.792C247.783 55.792 245.503 54.088 244.231 51.76L247.111 50.008C248.143 51.904 249.247 52.816 251.479 52.816C253.927 52.816 255.463 50.896 255.463 48.76ZM251.407 46.312C253.831 46.312 255.607 44.368 255.607 41.944C255.607 39.544 253.831 37.624 251.407 37.624C249.007 37.624 247.159 39.52 247.159 41.944C247.159 44.392 249.007 46.312 251.407 46.312ZM262.423 55.48L265.375 48.304L259.615 34.96H263.071L266.983 44.416L270.679 34.96H274.087L265.711 55.48H262.423Z" fill="black"/>
</svg>
