<svg width="40" height="40" viewBox="0 0 40 40" fill="none" xmlns="http://www.w3.org/2000/svg">
<path fill-rule="evenodd" clip-rule="evenodd" d="M19.6276 1C9.32704 1 1 9.7083 1 20.4816C1 29.0934 6.33542 36.383 13.7371 38.963C14.6625 39.157 15.0014 38.5438 15.0014 38.0281C15.0014 37.5764 14.9709 36.0283 14.9709 34.4153C9.78916 35.5767 8.71011 32.093 8.71011 32.093C7.87737 29.8352 6.6435 29.2549 6.6435 29.2549C4.94752 28.0614 6.76704 28.0614 6.76704 28.0614C8.64834 28.1905 9.6355 30.0612 9.6355 30.0612C11.3006 33.0283 13.9838 32.19 15.0632 31.6738C15.2172 30.4158 15.711 29.545 16.2353 29.0613C12.1025 28.6097 7.75421 26.9325 7.75421 19.4493C7.75421 17.3205 8.49392 15.5789 9.66601 14.2243C9.48108 13.7406 8.83327 11.7405 9.85132 9.06349C9.85132 9.06349 11.4241 8.54732 14.9705 11.0632C16.4889 10.6368 18.0547 10.4199 19.6276 10.418C21.2005 10.418 22.8038 10.644 24.2844 11.0632C27.8311 8.54732 29.404 9.06349 29.404 9.06349C30.422 11.7405 29.7738 13.7406 29.5889 14.2243C30.7919 15.5789 31.5011 17.3205 31.5011 19.4493C31.5011 26.9325 27.1528 28.5772 22.9891 29.0613C23.6678 29.674 24.2535 30.835 24.2535 32.6737C24.2535 35.2861 24.223 37.3829 24.223 38.0277C24.223 38.5438 24.5623 39.157 25.4873 38.9634C32.889 36.3826 38.2244 29.0934 38.2244 20.4816C38.2549 9.7083 29.8974 1 19.6276 1Z" fill="white"/>
</svg>
