<svg width="18" height="18" viewBox="0 0 18 18" fill="none" xmlns="http://www.w3.org/2000/svg">
<g id="icon/20/image/filter">
<path id="icon color" fill-rule="evenodd" clip-rule="evenodd" d="M16.875 3.93825H14.0058C13.7388 2.62842 12.5867 1.6875 11.25 1.6875C9.91321 1.6875 8.76114 2.62842 8.49414 3.93825H1.125V5.06325H8.4942C8.7612 6.37307 9.91326 7.31399 11.25 7.31399C12.5868 7.31399 13.7389 6.37307 14.0059 5.06325H16.875V3.93825ZM11.25 6.18825C10.318 6.18825 9.5625 5.43273 9.5625 4.50075C9.5625 3.56877 10.318 2.81325 11.25 2.81325C12.182 2.81325 12.9375 3.56877 12.9375 4.50075C12.9364 5.43229 12.1815 6.18719 11.25 6.18825V6.18825ZM16.875 12.9382H9.5058C9.2388 11.6284 8.08674 10.6875 6.74997 10.6875C5.41321 10.6875 4.26114 11.6284 3.99414 12.9382H1.125V14.0632H3.9942C4.2612 15.3731 5.41326 16.314 6.75003 16.314C8.08679 16.314 9.23886 15.3731 9.50586 14.0632H16.875V12.9382ZM6.75 15.1882C5.81802 15.1882 5.0625 14.4327 5.0625 13.5007C5.0625 12.5688 5.81802 11.8132 6.75 11.8132C7.68198 11.8132 8.4375 12.5688 8.4375 13.5007C8.43645 14.4323 7.68154 15.1872 6.75 15.1882V15.1882Z" fill="white"/>
<mask id="mask0_90_245" style="mask-type:luminance" maskUnits="userSpaceOnUse" x="1" y="1" width="16" height="16">
<path id="icon color_2" fill-rule="evenodd" clip-rule="evenodd" d="M16.875 3.93825H14.0058C13.7388 2.62842 12.5867 1.6875 11.25 1.6875C9.91321 1.6875 8.76114 2.62842 8.49414 3.93825H1.125V5.06325H8.4942C8.7612 6.37307 9.91326 7.31399 11.25 7.31399C12.5868 7.31399 13.7389 6.37307 14.0059 5.06325H16.875V3.93825ZM11.25 6.18825C10.318 6.18825 9.5625 5.43273 9.5625 4.50075C9.5625 3.56877 10.318 2.81325 11.25 2.81325C12.182 2.81325 12.9375 3.56877 12.9375 4.50075C12.9364 5.43229 12.1815 6.18719 11.25 6.18825V6.18825ZM16.875 12.9382H9.5058C9.2388 11.6284 8.08674 10.6875 6.74997 10.6875C5.41321 10.6875 4.26114 11.6284 3.99414 12.9382H1.125V14.0632H3.9942C4.2612 15.3731 5.41326 16.314 6.75003 16.314C8.08679 16.314 9.23886 15.3731 9.50586 14.0632H16.875V12.9382ZM6.75 15.1882C5.81802 15.1882 5.0625 14.4327 5.0625 13.5007C5.0625 12.5688 5.81802 11.8132 6.75 11.8132C7.68198 11.8132 8.4375 12.5688 8.4375 13.5007C8.43645 14.4323 7.68154 15.1872 6.75 15.1882V15.1882Z" fill="white"/>
</mask>
<g mask="url(#mask0_90_245)">
</g>
</g>
</svg>
