<svg width="20" height="20" viewBox="0 0 20 20" fill="none" xmlns="http://www.w3.org/2000/svg">
<path fill-rule="evenodd" clip-rule="evenodd" d="M3.125 3.125H5.625V5.625H3.125V3.125ZM8.75 3.125H11.25V5.625H8.75V3.125ZM16.875 3.125H14.375V5.625H16.875V3.125ZM8.75 8.75H11.25V11.25H8.75V8.75ZM5.625 8.75H3.125V11.25H5.625V8.75ZM14.375 8.75H16.875V11.25H14.375V8.75ZM11.25 14.375H8.75V16.875H11.25V14.375ZM3.125 14.375H5.625V16.875H3.125V14.375ZM16.875 14.375H14.375V16.875H16.875V14.375Z" fill="white"/>
<mask id="mask0_59_28" style="mask-type:luminance" maskUnits="userSpaceOnUse" x="3" y="3" width="14" height="14">
<path fill-rule="evenodd" clip-rule="evenodd" d="M3.125 3.125H5.625V5.625H3.125V3.125ZM8.75 3.125H11.25V5.625H8.75V3.125ZM16.875 3.125H14.375V5.625H16.875V3.125ZM8.75 8.75H11.25V11.25H8.75V8.75ZM5.625 8.75H3.125V11.25H5.625V8.75ZM14.375 8.75H16.875V11.25H14.375V8.75ZM11.25 14.375H8.75V16.875H11.25V14.375ZM3.125 14.375H5.625V16.875H3.125V14.375ZM16.875 14.375H14.375V16.875H16.875V14.375Z" fill="white"/>
</mask>
<g mask="url(#mask0_59_28)">
</g>
</svg>
