<svg width="160" height="160" viewBox="0 0 160 160" fill="none" xmlns="http://www.w3.org/2000/svg">
<circle cx="80" cy="80" r="80" fill="white"/>
<g clip-path="url(#clip0_307_1578)">
<path d="M71.1474 65.6685H64.8457V68.2281H71.1474V65.6685Z" fill="#1428A0"/>
<path d="M102.098 79.1644C101.393 79.1644 100.819 78.59 100.819 77.8846V62.628C100.819 61.9226 101.393 61.3481 102.098 61.3481C107.007 61.3481 111 65.3439 111 70.2563C111 75.1686 107.007 79.1644 102.098 79.1644ZM103.381 64.0387V76.4738C106.268 75.8782 108.446 73.3186 108.446 70.2563C108.446 67.194 106.268 64.6343 103.381 64.0387Z" fill="#1428A0"/>
<path d="M75.4055 92.0757C74.4769 89.9088 73.7383 87.6364 73.198 85.326L72.1386 80.7262H66.3096L68.6269 91.2943L66.1281 91.8434L63.469 79.7209C63.3846 79.3407 63.4774 78.9479 63.7222 78.6438C63.9628 78.3439 64.33 78.1665 64.7183 78.1665H73.1558C73.751 78.1665 74.2659 78.5762 74.401 79.1591L75.6883 84.7515C76.1864 86.9141 76.887 89.0387 77.7523 91.0662L75.3971 92.0757H75.4055Z" fill="#1428A0"/>
<path d="M71.1474 72.2837H64.8457V74.8434H71.1474V72.2837Z" fill="#1428A0"/>
<path d="M96.801 50.6235H94.2432V89.8886H96.801V50.6235Z" fill="black"/>
<path d="M98.789 92.5155H98.1854C96.7925 92.5155 95.4588 91.8523 94.5259 90.695C89.5158 84.4563 81.3105 80.7309 76.275 80.7309C75.5659 80.7309 74.9961 80.1565 74.9961 79.4511V61.0688C74.9961 60.3634 75.5701 59.789 76.275 59.789C81.3105 59.789 89.5158 56.0635 94.5259 49.8249C95.4588 48.6675 96.7925 48.0044 98.1854 48.0044H98.789C101.322 48.0044 103.381 50.0656 103.381 52.6V87.9241C103.381 90.4585 101.322 92.5197 98.789 92.5197V92.5155ZM77.5497 78.2261C83.1339 78.7457 91.2379 82.5134 96.514 89.0857C96.9572 89.639 97.565 89.9516 98.1812 89.9516H98.7848C99.9075 89.9516 100.819 89.0392 100.819 87.9157V52.5957C100.819 51.4764 99.9075 50.5641 98.7848 50.5641H98.1812C97.565 50.5641 96.9572 50.8808 96.514 51.4299C91.2337 58.0023 83.1339 61.77 77.5497 62.2895V78.2304V78.2261Z" fill="black"/>
<path d="M76.2712 80.7268H63.9295C60.9031 80.7268 58.4424 78.2642 58.4424 75.2357V65.2801C58.4424 62.2516 60.9074 59.7891 63.9295 59.7891H76.2712C76.9761 59.7891 77.5501 60.3635 77.5501 61.0689V63.7595H74.9923V62.3487H63.9295C62.3129 62.3487 61.0002 63.6623 61.0002 65.2801V75.2357C61.0002 76.8535 62.3129 78.1671 63.9295 78.1671H74.9923V76.7563H77.5501V79.4469C77.5501 80.1565 76.9761 80.7268 76.2712 80.7268Z" fill="black"/>
<path d="M56.0786 92.8492H54.251V90.2895H56.0786C56.8763 90.2895 57.6445 89.9558 58.189 89.3729L61.1732 86.1797C62.2031 85.0815 63.6508 84.4521 65.1534 84.4521V87.0118C64.3557 87.0118 63.5875 87.3455 63.0388 87.9284L60.0546 91.1216C59.029 92.2198 57.577 92.8492 56.0744 92.8492H56.0786Z" fill="black"/>
<path d="M76.9845 112H64.6891C63.3722 112 62.0722 111.646 60.9368 110.978C58.9319 109.711 56.6569 109.056 54.3185 109.056L54.251 106.497H54.3185C57.138 106.497 59.8858 107.291 62.2664 108.794C62.9797 109.213 63.8281 109.445 64.6891 109.445H76.9845C78.6939 109.445 80.1205 108.161 80.2978 106.459L81.3446 96.541C81.4459 95.5864 81.1462 94.6741 80.5089 93.9603C79.8673 93.2464 78.9894 92.8536 78.027 92.8536H64.3768V90.2939H78.027C79.6942 90.2939 81.2939 91.0036 82.4082 92.2454C83.5225 93.4872 84.0628 95.1472 83.8855 96.8071L82.8388 106.725C82.5222 109.732 80.0024 112 76.9802 112H76.9845Z" fill="black"/>
<path d="M82.6192 96.8574H76.4609V99.4171H82.6192V96.8574Z" fill="black"/>
<path d="M81.6569 103.599H75.5029V106.159H81.6569V103.599Z" fill="black"/>
<path d="M54.2507 110.628H49V108.068H52.9718V90.5558H49V87.9961H54.2507C54.9556 87.9961 55.5296 88.5705 55.5296 89.2759V109.348C55.5296 110.053 54.9556 110.628 54.2507 110.628Z" fill="black"/>
</g>
<defs>
<clipPath id="clip0_307_1578">
<rect width="62" height="64" fill="white" transform="translate(49 48)"/>
</clipPath>
</defs>
</svg>
