<svg width="160" height="160" viewBox="0 0 160 160" fill="none" xmlns="http://www.w3.org/2000/svg">
<circle cx="80" cy="80" r="80" fill="white"/>
<path d="M88.3608 100.331H54.7424C51.5739 100.331 49 97.7369 49 94.5532V56.8672C49 53.6793 51.578 51.0854 54.7424 51.0854H94.4525C97.621 51.0854 100.195 53.6793 100.195 56.863V86.0145H97.675V56.8672C97.675 55.0808 96.228 53.6249 94.4525 53.6249H54.7424C52.9627 53.6249 51.5198 55.0808 51.5198 56.8672V94.5532C51.5198 96.3396 52.9669 97.7955 54.7424 97.7955H88.3608V100.331Z" fill="black"/>
<path d="M98.9348 60.9131H50.2598V63.4484H98.9348V60.9131Z" fill="black"/>
<path d="M62.8294 49H60.3096V56.2586H62.8294V49Z" fill="black"/>
<path d="M88.8851 49H86.3652V56.2586H88.8851V49Z" fill="black"/>
<path d="M98.9442 111.035H98.9401C91.7382 111.035 85.8753 105.136 85.8711 97.89C85.8711 90.644 91.7341 84.7451 98.9359 84.7451C106.138 84.7451 112.001 90.644 112.001 97.89C112.001 101.4 110.641 104.701 108.175 107.186C105.71 109.671 102.433 111.035 98.9442 111.035ZM98.9359 87.2846C93.1187 87.2846 88.3909 92.0455 88.3909 97.8942C88.3909 103.747 93.127 108.504 98.9401 108.504H98.9442C101.755 108.504 104.404 107.404 106.396 105.4C108.387 103.396 109.485 100.731 109.485 97.8984C109.485 92.0455 104.753 87.2888 98.9401 87.2888L98.9359 87.2846Z" fill="#1428A0"/>
<path d="M97.7459 102.161C97.4091 102.161 97.093 102.027 96.856 101.789L92.8809 97.7852L94.6605 95.9946L97.7459 99.103L103.214 93.6016L104.993 95.3921L98.6357 101.789C98.3987 102.027 98.0785 102.161 97.7459 102.161Z" fill="#1428A0"/>
<path d="M62.0318 67.4761H56.9922V70.0113H62.0318V67.4761Z" fill="black"/>
<path d="M72.1109 67.4761H67.0713V70.0113H72.1109V67.4761Z" fill="black"/>
<path d="M82.1891 67.4761H77.1494V70.0113H82.1891V67.4761Z" fill="black"/>
<path d="M92.2701 67.4761H87.2305V70.0113H92.2701V67.4761Z" fill="black"/>
<path d="M62.0318 75.0479H56.9922V77.5831H62.0318V75.0479Z" fill="black"/>
<path d="M72.1109 75.0479H67.0713V77.5831H72.1109V75.0479Z" fill="black"/>
<path d="M82.1891 75.0479H77.1494V77.5831H82.1891V75.0479Z" fill="black"/>
<path d="M92.2701 75.0479H87.2305V77.5831H92.2701V75.0479Z" fill="black"/>
<path d="M62.0318 82.6157H56.9922V85.151H62.0318V82.6157Z" fill="black"/>
<path d="M72.1109 82.6157H67.0713V85.151H72.1109V82.6157Z" fill="black"/>
<path d="M82.1891 82.6157H77.1494V85.151H82.1891V82.6157Z" fill="black"/>
<path d="M92.2701 82.6157H87.2305V85.151H92.2701V82.6157Z" fill="black"/>
<path d="M62.0318 90.187H56.9922V92.7223H62.0318V90.187Z" fill="black"/>
<path d="M72.1109 90.187H67.0713V92.7223H72.1109V90.187Z" fill="black"/>
<path d="M82.1891 90.187H77.1494V92.7223H82.1891V90.187Z" fill="black"/>
</svg>
