<svg width="160" height="160" viewBox="0 0 160 160" fill="none" xmlns="http://www.w3.org/2000/svg">
<circle cx="80" cy="80" r="80" fill="white"/>
<path d="M72.0392 105.629L70.1472 103.955C72.7211 101.019 70.7834 97.5743 70.7626 97.5409C70.4757 97.044 70.5589 96.4177 70.9622 96.0126L75.374 91.5823C75.8896 91.0645 76.1723 90.3755 76.1723 89.6448C76.1723 88.914 75.8854 88.225 75.374 87.7073L65.3737 97.5868L63.5898 95.7997L73.428 85.9201C74.4259 84.9179 76.164 84.9179 77.1536 85.9201C78.1474 86.9139 78.6921 88.2376 78.6921 89.6448C78.6921 91.0519 78.1474 92.3756 77.1536 93.3736L73.3698 97.1776C74.1764 99.2112 74.6089 102.702 72.035 105.637L72.0392 105.629Z" fill="black"/>
<path d="M77.2005 111.001H74.6807V109.339C74.6807 107.782 75.3959 106.278 76.6974 105.105C79.055 102.976 79.1007 99.2342 78.9136 97.1923L81.4251 96.9668C81.6497 99.4764 81.554 104.116 78.3814 106.988C77.9365 107.385 77.2005 108.22 77.2005 109.339V111.001Z" fill="black"/>
<path d="M61.5198 111.001H59V91.6717C59 90.4106 59.5156 89.1871 60.4096 88.3061L65.4908 83.312L67.2539 85.1201L62.1726 90.1141C61.761 90.5192 61.524 91.0871 61.524 91.6675V110.997L61.5198 111.001Z" fill="black"/>
<path d="M73.6315 60.0836C72.9371 60.0836 72.3633 59.5157 72.3633 58.8183V50.2666H74.8789V56.505L76.4507 55.4903C76.8624 55.2189 77.3946 55.2231 77.8146 55.4903L79.3864 56.505V50.2666H81.902V58.8142C81.902 59.1482 81.7731 59.4697 81.5361 59.7077C81.1286 60.1128 80.4384 60.1879 79.9519 59.8789L77.1326 58.0584L74.3134 59.8789C74.1097 60.0126 73.8727 60.0794 73.6315 60.0794V60.0836Z" fill="#1428A0"/>
<path d="M99.4709 98.3478H72.3017V95.8174H99.4709C99.8035 95.8174 100.07 95.546 100.07 95.2119V58.2532L93.3751 51.5304H68.2351C67.9024 51.5304 67.6321 51.8019 67.6321 52.1359V94.5647H65.1123V52.1359C65.1123 50.4072 66.5136 49 68.2351 49H93.6911C94.1651 49 94.6059 49.1837 94.9427 49.522L101.991 56.5997C102.373 56.9797 102.598 57.5183 102.598 58.0695V95.2161C102.598 96.9448 101.196 98.352 99.4792 98.352L99.4709 98.3478Z" fill="black"/>
<path d="M96.4269 71.1562H71.2744V73.6867H96.4269V71.1562Z" fill="#1428A0"/>
<path d="M96.4269 78.0664H71.2744V80.5968H96.4269V78.0664Z" fill="#1428A0"/>
<path d="M96.4281 84.9785H84.0244V87.509H96.4281V84.9785Z" fill="#1428A0"/>
<path d="M83.6781 64.2441H71.2744V66.7746H83.6781V64.2441Z" fill="#1428A0"/>
</svg>
