<svg width="160" height="160" viewBox="0 0 160 160" fill="none" xmlns="http://www.w3.org/2000/svg">
<circle cx="80" cy="80" r="80" fill="white"/>
<g clip-path="url(#clip0_307_1600)">
<path d="M111.676 112C111.562 112 111.449 111.983 111.336 111.957L100.085 108.999C96.5914 110.966 92.658 112 88.6724 112C77.1686 112 67.5291 103.806 65.7606 92.5171C65.6952 92.0933 65.839 91.6653 66.1526 91.3669C66.4619 91.0729 66.8975 90.9475 67.3243 91.0297C68.8445 91.3324 70.1164 91.475 71.323 91.475C82.67 91.475 91.9001 82.313 91.9001 71.0454C91.9001 70.0682 91.8086 69.0175 91.6213 67.8372C91.5516 67.4134 91.6997 66.9854 92.009 66.687C92.3183 66.3887 92.7538 66.2633 93.1807 66.3455C104.022 68.4641 111.893 77.972 111.893 88.95C111.893 93.2478 110.696 97.4202 108.426 101.056L112.865 110.115C113.091 110.577 113.026 111.126 112.699 111.52C112.442 111.827 112.068 112 111.68 112H111.676ZM68.7356 93.9223C70.992 102.981 79.1026 109.38 88.6724 109.38C92.3662 109.38 96.012 108.372 99.2136 106.47C99.5185 106.288 99.8844 106.241 100.229 106.327L109.223 108.692L105.721 101.549C105.517 101.134 105.551 100.637 105.808 100.252C108.056 96.8927 109.245 92.9883 109.245 88.9543C109.245 79.8399 103.13 71.8712 94.4613 69.3548C94.5093 69.9428 94.5354 70.5006 94.5354 71.0497C94.5354 83.7572 84.1205 94.0996 71.3187 94.0996C70.491 94.0996 69.6417 94.0433 68.7313 93.9266L68.7356 93.9223Z" fill="#1428A0"/>
<path d="M48.3195 94.0954C47.9318 94.0954 47.5528 93.9224 47.3002 93.6155C46.9735 93.222 46.9082 92.6729 47.1347 92.2102L51.5733 83.1563C49.3039 79.5157 48.106 75.3477 48.106 71.0499C48.106 58.3381 58.5209 48 71.3228 48C84.1246 48 94.5395 58.3381 94.5395 71.0455C94.5395 83.753 84.1246 94.0911 71.3228 94.0911C67.3371 94.0911 63.4038 93.0534 59.9104 91.0904L48.6549 94.0478C48.5416 94.0781 48.4284 94.0911 48.3151 94.0911L48.3195 94.0954ZM60.1021 88.3794C60.3373 88.3794 60.5725 88.4399 60.7816 88.5653C63.9831 90.4678 67.629 91.4752 71.3228 91.4752C82.6698 91.4752 91.8998 82.3132 91.8998 71.0499C91.8998 59.7865 82.6698 50.6202 71.3228 50.6202C59.9757 50.6202 50.7457 59.7822 50.7457 71.0455C50.7457 75.0796 51.9348 78.9839 54.1824 82.3391C54.4394 82.724 54.4743 83.2212 54.2696 83.6363L50.7674 90.7791L59.7667 88.414C59.8756 88.3837 59.9888 88.3708 60.1064 88.3708L60.1021 88.3794Z" fill="black"/>
</g>
<defs>
<clipPath id="clip0_307_1600">
<rect width="66" height="64" fill="white" transform="translate(47 48)"/>
</clipPath>
</defs>
</svg>
