<svg width="160" height="160" viewBox="0 0 160 160" fill="none" xmlns="http://www.w3.org/2000/svg">
<circle cx="80" cy="80" r="80" fill="white"/>
<path d="M69.5408 91.2392C66.5243 91.2392 64.2374 89.4045 62.1249 87.713C61.4089 87.1402 60.6838 86.554 59.914 86.0349C54.6509 82.4639 50.2694 85.8246 50.0859 85.9722L48.3896 83.8556C50.4708 82.1864 55.8682 80.0161 61.4357 83.7885C62.2637 84.3478 63.0469 84.9788 63.8211 85.5963C67.1151 88.2365 69.4961 90.1429 74.5176 86.4779C74.7682 86.2944 75.0233 86.0931 75.2918 85.8827C77.8115 83.9182 81.6157 80.9514 88.1857 84.679L86.8475 87.0373C81.8529 84.2046 79.2526 86.2318 76.9612 88.0217C76.6703 88.25 76.3883 88.4648 76.1198 88.6661C73.5598 90.5367 71.4116 91.2437 69.5408 91.2437V91.2392Z" fill="#1428A0"/>
<path d="M77.8968 111.001H58.4195C55.5731 111.001 52.9236 109.788 51.1558 107.667C47.8305 103.702 46 98.6587 46 93.4723C46 84.0525 51.8316 75.8008 60.608 72.637V57.1851H63.3202V73.6125C63.3202 74.2077 62.9353 74.7313 62.3669 74.9058C54.1991 77.4475 48.7121 84.9072 48.7121 93.4723C48.7121 98.0188 50.3188 102.444 53.2369 105.926C54.49 107.425 56.3787 108.284 58.424 108.284H77.9013C79.9421 108.284 81.8308 107.425 83.0884 105.926C86.0064 102.444 87.6131 98.0188 87.6131 93.4723C87.6131 84.9117 82.1262 77.4475 73.9584 74.9058C73.39 74.7268 73.0051 74.2032 73.0051 73.6125V57.1851H75.7173V72.637C84.4982 75.8052 90.3253 84.0525 90.3253 93.4723C90.3253 98.6542 88.4948 103.697 85.1695 107.671C83.3972 109.788 80.7522 111.001 77.9058 111.001H77.8968Z" fill="black"/>
<path d="M102.046 89.2031H95.0469V91.9149H102.046V89.2031Z" fill="#1428A0"/>
<path d="M102.046 67.6035H95.0469V70.3153H102.046V67.6035Z" fill="#1428A0"/>
<path d="M102.046 74.8027H95.0469V77.5145H102.046V74.8027Z" fill="#1428A0"/>
<path d="M102.046 82.002H95.0469V84.7138H102.046V82.002Z" fill="#1428A0"/>
<path d="M102.046 96.4023H95.0469V99.1141H102.046V96.4023Z" fill="#1428A0"/>
<path d="M102.047 111C97.4419 111 93.6914 107.254 93.6914 102.645V63.2031C93.6914 62.4558 94.3001 61.8472 95.0475 61.8472H109.042C109.79 61.8472 110.398 62.4558 110.398 63.2031V102.65C110.398 107.254 106.652 111.004 102.043 111.004L102.047 111ZM96.4036 64.559V102.65C96.4036 105.76 98.9367 108.292 102.047 108.292C105.158 108.292 107.691 105.76 107.691 102.65V64.559H96.408H96.4036Z" fill="black"/>
<path d="M109.042 64.5599H95.0467C92.4196 64.5599 90.2803 62.4209 90.2803 59.7941C90.2803 57.1673 92.4196 55.0283 95.0467 55.0283H109.042C111.669 55.0283 113.808 57.1673 113.808 59.7941C113.808 62.4209 111.669 64.5599 109.042 64.5599ZM95.0467 57.7401C93.9144 57.7401 92.9924 58.662 92.9924 59.7941C92.9924 60.9263 93.9144 61.8481 95.0467 61.8481H109.042C110.174 61.8481 111.096 60.9263 111.096 59.7941C111.096 58.662 110.174 57.7401 109.042 57.7401H95.0467Z" fill="#1428A0"/>
<path d="M68.1574 61.8438H62.4922V64.5556H68.1574V61.8438Z" fill="black"/>
<path d="M68.1574 67.8696H62.4922V70.5814H68.1574V67.8696Z" fill="black"/>
<path d="M75.1583 58.5316H61.159C58.5319 58.5316 56.3926 56.3926 56.3926 53.7658C56.3926 51.139 58.5319 49 61.159 49H75.1583C77.7854 49 79.9247 51.139 79.9247 53.7658C79.9247 56.3926 77.7854 58.5316 75.1583 58.5316ZM61.159 51.7118C60.0267 51.7118 59.1047 52.6336 59.1047 53.7658C59.1047 54.898 60.0267 55.8198 61.159 55.8198H75.1583C76.2906 55.8198 77.2126 54.898 77.2126 53.7658C77.2126 52.6336 76.2906 51.7118 75.1583 51.7118H61.159Z" fill="#1428A0"/>
</svg>
