<svg width="160" height="160" viewBox="0 0 160 160" fill="none" xmlns="http://www.w3.org/2000/svg">
<circle cx="80" cy="80" r="80" fill="white"/>
<g clip-path="url(#clip0_307_1609)">
<path d="M61.7178 62.308C58.732 62.308 56.2225 60.062 55.8793 57.0788L55.5918 54.5871C55.3988 52.9145 55.9265 51.2332 57.0418 49.9744C58.1529 48.7199 59.753 48 61.4303 48H62.0052C63.6825 48 65.2826 48.7199 66.3937 49.9787C67.5091 51.2375 68.0367 52.9188 67.8437 54.5914L67.5563 57.0831C67.2131 60.062 64.6992 62.3123 61.7135 62.3123L61.7178 62.308ZM61.4303 50.6124C60.4823 50.6124 59.6114 51.0047 58.9808 51.716C58.3502 52.4273 58.0628 53.3412 58.17 54.2896L58.4575 56.7814C58.6505 58.4454 60.049 59.6955 61.7135 59.6955C63.3779 59.6955 64.7807 58.4411 64.9738 56.7814L65.2612 54.2896C65.3684 53.3412 65.0853 52.4273 64.4547 51.716C63.8241 51.0047 62.9532 50.6124 62.0052 50.6124H61.4303Z" fill="black"/>
<path d="M56.9092 86.061H54.3096V112H56.9092V86.061Z" fill="black"/>
<path d="M69.1309 86.061H66.5312V96.1874H69.1309V86.061Z" fill="black"/>
<path d="M55.6098 87.3672H52.7957C50.1403 87.3672 48.0039 84.147 48.0039 81.4828V72.3825C48.0039 68.7742 50.6722 65.6143 54.4902 64.6961C56.1933 64.2865 58.6942 64.1227 61.8945 64.2176L67.8703 64.4116C73.49 64.6012 78.7965 64.7823 84.3819 64.7823C85.0984 64.7823 85.6818 65.3686 85.6818 66.0885C85.6818 69.964 82.5459 73.18 78.6893 73.2533L69.7063 73.5378C69.3975 73.555 69.1358 73.8309 69.1358 74.1672V86.061H66.5361V74.1672C66.5361 72.4385 67.8788 71.0159 69.5991 70.9254L78.6249 70.6408C80.6369 70.602 82.3357 69.2312 82.8891 67.3904C77.8056 67.3602 72.9237 67.2007 67.7845 67.024L61.8216 66.8343C58.883 66.7395 56.5622 66.886 55.0993 67.2395C52.4525 67.8732 50.6079 69.9899 50.6079 72.3868V81.4871C50.6079 82.927 51.839 84.7591 52.8 84.7591H54.3143V74.9776H56.914V86.0653C56.914 86.7853 56.3305 87.3715 55.6141 87.3715L55.6098 87.3672Z" fill="black"/>
<path d="M78.5135 99.9252C75.6307 99.9252 73.2026 97.7525 72.8723 94.8728L72.5978 92.4888C72.4133 90.8722 72.9195 89.247 74.0006 88.0313C75.0773 86.8156 76.6217 86.1216 78.2432 86.1216H78.7923C80.4139 86.1216 81.9583 86.82 83.035 88.0356C84.1118 89.2513 84.6223 90.8765 84.4378 92.4888L84.1632 94.8728C83.8286 97.7525 81.4049 99.9252 78.5178 99.9252H78.5135ZM78.2389 88.734C77.3467 88.734 76.5316 89.1004 75.9396 89.7729C75.3476 90.4411 75.0773 91.299 75.1803 92.1871L75.4548 94.571C75.635 96.1315 76.952 97.3127 78.5135 97.3127C80.075 97.3127 81.392 96.1359 81.5765 94.571L81.851 92.1871C81.954 91.2947 81.6837 90.4411 81.0917 89.7729C80.4997 89.1004 79.6803 88.734 78.788 88.734H78.2389Z" fill="#1428A0"/>
<path d="M90.8768 112H88.2771V109.332C88.2771 106.767 86.2008 104.676 83.6441 104.676H73.387C70.8302 104.676 68.754 106.767 68.754 109.332V112H66.1543V109.332C66.1543 105.323 69.3974 102.063 73.387 102.063H83.6441C87.6336 102.063 90.8768 105.323 90.8768 109.332V112Z" fill="#1428A0"/>
<path d="M100.637 99.9252C97.7538 99.9252 95.3257 97.7525 94.9954 94.8728L94.7208 92.4888C94.5364 90.8722 95.0426 89.247 96.1236 88.0313C97.2004 86.8156 98.7447 86.1216 100.366 86.1216H100.915C102.537 86.1216 104.081 86.82 105.158 88.0356C106.235 89.2513 106.745 90.8765 106.561 92.4888L106.286 94.8728C105.952 97.7525 103.528 99.9252 100.641 99.9252H100.637ZM100.362 88.734C99.4697 88.734 98.6546 89.1004 98.0626 89.7686C97.4706 90.4411 97.2004 91.299 97.3033 92.1871L97.5779 94.571C97.758 96.1315 99.075 97.3127 100.637 97.3127C102.198 97.3127 103.515 96.1359 103.7 94.571L103.974 92.1871C104.077 91.2947 103.807 90.4411 103.215 89.7729C102.623 89.1004 101.803 88.734 100.911 88.734H100.362Z" fill="#1428A0"/>
<path d="M113 112H110.4V109.332C110.4 106.767 108.324 104.676 105.767 104.676H95.5101C92.9533 104.676 90.877 106.767 90.877 109.332V112H88.2773V109.332C88.2773 105.323 91.5205 102.063 95.5101 102.063H105.767C109.757 102.063 113 105.323 113 109.332V112Z" fill="#1428A0"/>
<path d="M94.8925 78.7973C94.6051 78.7973 94.3177 78.7068 94.086 78.5257C93.6442 78.1895 93.4597 77.5773 93.6356 77.0471L95.0555 70.3953L90.0793 66.2267C89.676 65.8904 89.5087 65.3214 89.6589 64.817C89.8262 64.2652 90.3538 63.8686 90.9287 63.8686L97.1147 63.0969L100.105 56.9668C100.542 56.0701 102.104 56.0744 102.537 56.9668L105.501 63.0969L111.833 63.8772C112.335 63.9376 112.781 64.304 112.94 64.7868C113.116 65.3214 112.919 65.9464 112.464 66.2827L107.556 70.391L109.023 77.1764C109.131 77.6722 108.933 78.211 108.534 78.5171C108.097 78.8577 107.458 78.8749 106.994 78.5688L101.314 75.0468L95.5961 78.5947C95.3858 78.724 95.1456 78.7887 94.9011 78.7887L94.8925 78.7973ZM93.9959 66.1189L97.3206 68.8994C97.6895 69.2098 97.8611 69.7013 97.7581 70.1798L96.7672 74.8011L100.624 72.4085C101.044 72.1499 101.572 72.1499 101.988 72.4085L105.845 74.8011L104.841 70.1798C104.738 69.7013 104.909 69.2098 105.278 68.8951L108.607 66.1146L104.48 65.6102C104.043 65.5585 103.661 65.2826 103.468 64.886L101.31 60.4241L99.1395 64.8816C98.9464 65.2783 98.5646 65.5498 98.1314 65.6059L94.0002 66.1146L93.9959 66.1189Z" fill="#1428A0"/>
</g>
<defs>
<clipPath id="clip0_307_1609">
<rect width="65" height="64" fill="white" transform="translate(48 48)"/>
</clipPath>
</defs>
</svg>
