<svg width="160" height="160" viewBox="0 0 160 160" fill="none" xmlns="http://www.w3.org/2000/svg">
<circle cx="80" cy="80" r="80" fill="white"/>
<path d="M79.9775 103.597C77.2009 103.597 74.623 101.98 73.4172 99.4804L72.3684 97.309C71.2781 95.0499 70.6314 92.629 70.4466 90.125C70.4096 89.6399 70.3911 89.1548 70.3911 88.6697V84.8583C70.3911 83.4723 70.7699 82.151 71.4814 81.0422C72.7011 79.1342 75.1681 76.8566 79.9867 76.8242H80.0745C85.5491 76.8242 87.9099 79.7948 88.8339 81.5689C89.319 82.5021 89.5639 83.5601 89.5639 84.7151V88.6651C89.5639 89.1502 89.5454 89.6353 89.5084 90.1204C89.3236 92.629 88.6768 95.0453 87.5865 97.3044L86.5378 99.4712C85.3274 101.975 82.7541 103.592 79.9775 103.592V103.597ZM80.0791 79.6239H80.0052C76.4432 79.647 74.6877 81.227 73.8376 82.5529C73.4126 83.2136 73.1908 84.0082 73.1908 84.8583V88.6697C73.1908 89.0902 73.2047 89.5059 73.237 89.9217C73.3941 92.07 73.9485 94.1444 74.8863 96.0894L75.935 98.2607C76.6788 99.8038 78.2681 100.797 79.9729 100.797C81.6776 100.797 83.2669 99.8038 84.0153 98.2607L85.064 96.094C86.0019 94.1536 86.5563 92.0793 86.718 89.9217C86.7503 89.5059 86.7642 89.0902 86.7642 88.6744V84.7243C86.7642 84.0221 86.6256 83.3938 86.3484 82.8671C85.5815 81.3887 83.8675 79.6285 80.0791 79.6285V79.6239Z" fill="black"/>
<path d="M100.416 111.935C99.7232 109.926 96.6048 108.105 94.147 107.163C92.5716 106.558 91.1856 106.072 90.0167 105.694C86.8613 104.668 84.519 102.141 83.9092 99.0964L86.6534 98.542C87.0646 100.598 88.6862 102.316 90.8807 103.028C92.0911 103.421 93.5325 103.92 95.1541 104.548C97.1222 105.306 101.835 107.454 103.063 111.025L100.416 111.94V111.935Z" fill="black"/>
<path d="M59.5668 112L56.8965 111.159C58.0468 107.51 62.8423 105.324 64.852 104.548C66.5614 103.888 68.0629 103.379 69.3056 102.987C71.4401 102.321 73.0108 100.737 73.5144 98.7549L76.2309 99.4433C75.4871 102.377 73.2095 104.701 70.1418 105.662C68.9407 106.036 67.5039 106.526 65.8592 107.163C63.3552 108.124 60.209 109.967 59.5668 112Z" fill="black"/>
<path d="M112.266 104.682C111.564 102.487 108.557 100.556 105.969 99.4842C104.399 98.8328 103.013 98.3107 101.839 97.8996C98.6929 96.8 96.3645 94.1066 95.7593 90.8634L98.5128 90.3506C98.9332 92.6097 100.559 94.4854 102.763 95.257C103.978 95.682 105.415 96.2225 107.041 96.897C109.009 97.7148 113.717 100.029 114.932 103.827L112.266 104.682Z" fill="black"/>
<path d="M47.7348 104.682L45.0645 103.827C46.2749 100.025 50.9826 97.7148 52.9507 96.897C54.5769 96.2225 56.0137 95.6866 57.2288 95.257C59.4325 94.4854 61.0633 92.6051 61.4837 90.3506L64.2372 90.8634C63.632 94.102 61.3035 96.8 58.1527 97.8996C56.9839 98.3107 55.5979 98.8328 54.0225 99.4842C51.44 100.561 48.4324 102.487 47.7302 104.682H47.7348Z" fill="black"/>
<path d="M91.8371 95.3868C89.9521 95.3868 88.1458 94.6338 86.7552 93.2663C86.4179 92.9336 86.2701 92.4578 86.3625 91.9958L86.4456 91.5753C86.5611 91.0256 86.6766 90.4804 86.7182 89.9168C86.7505 89.501 86.7644 89.0852 86.7644 88.6694V84.7194C86.7644 84.0171 86.6258 83.3888 86.3486 82.8621C86.2285 82.6312 86.0622 82.3771 85.8727 82.123C85.7203 81.9151 85.5678 81.7441 85.4015 81.5686C85.2029 81.3653 85.0134 81.1944 84.8009 81.0327C84.3805 80.7046 83.8862 80.4274 83.3272 80.2057C82.2461 80.0347 82.2461 78.9583 82.2461 77.7248V76.6483C82.2461 75.267 82.6249 73.9457 83.3364 72.8323C84.5607 70.9242 87.0277 68.642 91.8417 68.6143H91.9295C97.4041 68.6143 99.7649 71.5849 100.689 73.3589C101.174 74.2922 101.419 75.3501 101.419 76.5051V80.4552C101.419 80.9403 101.4 81.4253 101.363 81.9104C101.179 84.4191 100.532 86.8353 99.4415 89.0944L98.3928 91.2612C97.1824 93.7652 94.609 95.3822 91.8325 95.3822L91.8371 95.3868ZM89.273 91.7417C91.4536 93.3171 94.7338 92.4162 95.8795 90.0508L96.9283 87.884C97.8661 85.9436 98.4205 83.8693 98.5822 81.7118C98.6145 81.296 98.6284 80.8802 98.6284 80.4644V76.5144C98.6284 75.8121 98.4898 75.1838 98.2126 74.6571C97.4457 73.1788 95.7317 71.4186 91.9387 71.4186H91.8648C88.3028 71.4417 86.5473 73.0217 85.6972 74.3476C85.2768 75.0083 85.0504 75.8029 85.0504 76.653V77.9096C85.5863 78.1729 86.0806 78.4778 86.5242 78.8243C86.8383 79.0646 87.1247 79.3233 87.3835 79.5866C87.6838 79.8961 87.9055 80.1595 88.1042 80.4274C88.4137 80.8479 88.6586 81.2267 88.8387 81.5778C89.3238 82.511 89.5687 83.569 89.5687 84.724V88.674C89.5687 89.1591 89.5502 89.6442 89.5133 90.1293C89.4717 90.6745 89.3793 91.2104 89.273 91.7463V91.7417Z" fill="black"/>
<path d="M68.1596 95.3863C65.383 95.3863 62.8051 93.7694 61.5993 91.27L60.5506 89.0986C59.4603 86.8395 58.8135 84.4232 58.6287 81.9192C58.5917 81.4341 58.5732 80.9444 58.5732 80.4639V76.5139C58.5732 75.3589 58.8181 74.301 59.3032 73.3677C60.2272 71.589 62.5926 68.623 68.0626 68.623H68.1504C72.969 68.6554 75.436 70.933 76.6603 72.8411C77.3718 73.9498 77.7506 75.2711 77.7506 76.6571V78.8377C77.7506 79.4152 77.3949 79.9327 76.8543 80.1406L76.0643 78.9717L76.591 80.2745C75.9627 80.5656 75.5515 80.8058 75.2096 81.0738C74.6183 81.5404 74.1886 82.0116 73.8745 82.5106L73.6481 82.8663C73.5742 83.0142 73.5372 83.1666 73.491 83.3145L73.3617 83.6933C73.3293 83.8042 73.3247 83.9197 73.3108 84.0305L73.2369 84.5572C73.2184 84.6588 73.1953 84.7605 73.1953 84.8668V88.6782C73.1953 89.0986 73.2092 89.5144 73.2415 89.9302C73.2831 90.5031 73.4032 91.0667 73.5234 91.6303L73.6019 92.0277C73.6943 92.4943 73.5465 92.9794 73.2046 93.312C71.8186 94.6564 70.0261 95.3956 68.1642 95.3956L68.1596 95.3863ZM68.0626 71.4135C64.2696 71.4135 62.5602 73.1737 61.7887 74.6521C61.5161 75.1787 61.3729 75.8071 61.3729 76.5093V80.4593C61.3729 80.8797 61.3868 81.2955 61.4191 81.7113C61.5762 83.8596 62.1352 85.934 63.0731 87.8789L64.1218 90.0503C65.2583 92.4019 68.4969 93.3212 70.6913 91.7597C70.5851 91.2192 70.4881 90.6786 70.4511 90.1242C70.4141 89.6391 70.3957 89.1541 70.3957 88.669V84.8575C70.3957 84.5803 70.4372 84.317 70.4834 84.049L71.9202 83.8827L70.525 83.7487C70.5481 83.5039 70.5758 83.259 70.6313 83.0234C70.6498 82.9587 70.7283 82.7185 70.7514 82.6584C70.8992 82.1826 71.0009 81.8684 71.158 81.5681C71.2134 81.4572 71.2966 81.3233 71.3843 81.1893C71.3843 81.1847 71.5599 80.9213 71.5645 80.9167C71.9757 80.2468 72.6179 79.5353 73.4079 78.9117C73.9068 78.5282 74.4012 78.2187 74.9417 77.9507V76.6479C74.9417 75.8024 74.7199 75.0032 74.2949 74.3471C73.4448 73.0212 71.6846 71.4366 68.1227 71.4181H68.0534L68.0626 71.4135Z" fill="black"/>
<path d="M59.2202 67.6301C58.9106 67.6301 58.5595 67.5239 58.3147 67.3391L51.5788 62.1324H46.3998C45.6283 62.1324 45 61.5041 45 60.7325V49.3998C45 48.6283 45.6283 48 46.3998 48H63.295C64.0665 48 64.6948 48.6283 64.6948 49.3998V60.7279C64.6948 61.4995 64.0665 62.1278 63.295 62.1278H60.6154V66.2303C60.6154 67.0018 59.9871 67.6301 59.2156 67.6301H59.2202ZM47.7997 59.3281H52.0546C52.3642 59.3281 52.6645 59.4297 52.9093 59.6191L57.8157 63.4121V60.7233C57.8157 59.9518 58.444 59.3235 59.2156 59.3235H61.8951V50.7997H47.7997V59.3281Z" fill="#1428A0"/>
<path d="M100.148 68.3092C99.3769 68.3092 98.7162 67.6809 98.7162 66.9094V62.5667H95.8242C95.0526 62.5667 94.4243 61.9384 94.4243 61.1668V49.3998C94.4243 48.6283 95.0526 48 95.8242 48H113.592C114.364 48 114.992 48.6283 114.992 49.3998V61.1668C114.992 61.9384 114.364 62.5667 113.592 62.5667H107.813L101.022 68.0043C100.772 68.203 100.467 68.3092 100.148 68.3092ZM97.2286 59.767H100.121C100.892 59.767 101.521 60.3953 101.521 61.1668V64.0219L106.455 60.0719C106.704 59.8732 107.009 59.767 107.328 59.767H112.197V50.7997H97.2286V59.767Z" fill="#1428A0"/>
<path d="M79.6727 68.5449C79.1968 68.5449 78.6887 68.3046 78.4299 67.9073L74.8772 62.4003H69.8969C69.1254 62.4003 68.4971 61.772 68.4971 61.0005V49.3998C68.4971 48.6283 69.1254 48 69.8969 48H90.0583C90.8299 48 91.4582 48.6283 91.4582 49.3998V60.9959C91.4582 61.7674 90.8299 62.3957 90.0583 62.3957H85.0133L80.7907 67.9858C80.5274 68.337 80.1116 68.5402 79.6727 68.5402V68.5449ZM71.2968 59.596H75.6395C76.1153 59.596 76.5589 59.8363 76.8176 60.2382L79.7235 64.7519L83.1977 60.1551C83.4611 59.8039 83.8768 59.6007 84.3157 59.6007H88.6585V50.7997H71.2968V59.596Z" fill="#1428A0"/>
</svg>
