<svg width="160" height="160" viewBox="0 0 160 160" fill="none" xmlns="http://www.w3.org/2000/svg">
<circle cx="80" cy="80" r="80" fill="white"/>
<g clip-path="url(#clip0_246_3420)">
<path d="M86.909 85.8184C86.109 85.8184 85.4545 86.4729 85.4545 87.2729V103.273C85.4545 106.487 82.8509 109.091 79.6363 109.091C76.4218 109.091 73.8181 106.487 73.8181 103.273V96.0002C73.8181 92.7856 71.2145 90.182 68 90.182C67.2 90.182 66.5454 90.8365 66.5454 91.6365C66.5454 92.4365 67.2 93.0911 68 93.0911C69.6 93.0911 70.909 94.4002 70.909 96.0002V103.273C70.909 108.087 74.8218 112 79.6363 112C84.4509 112 88.3636 108.087 88.3636 103.273V87.2729C88.3636 86.4729 87.709 85.8184 86.909 85.8184Z" fill="#231F20"/>
<path d="M86.909 88.7268C81.3236 88.7268 75.9854 85.3377 71.8836 79.1705C68.6981 74.385 66.5454 68.2905 66.5454 63.9996C66.5454 55.825 72.989 52.6105 76.0727 51.0687C76.8 50.705 77.6581 50.9959 78.0218 51.7232C78.3854 52.4359 78.0945 53.3087 77.3672 53.6723C74.6036 55.0541 69.44 57.6287 69.44 64.0141C69.44 70.3996 76.2181 85.8323 86.8945 85.8323C97.5709 85.8323 104.349 70.4868 104.349 64.0141C104.349 57.5414 99.2 55.0687 96.4218 53.6723C95.709 53.3087 95.4036 52.4359 95.7672 51.7232C96.1309 51.0105 97.0036 50.7196 97.7163 51.0687C100.815 52.6105 107.244 55.8396 107.244 63.9996C107.244 72.1596 99.3163 88.7268 86.88 88.7268H86.909Z" fill="#231F20"/>
<path d="M60.7273 98.9096C55.9127 98.9096 52 94.9969 52 90.1824C52 85.3678 55.9127 81.4551 60.7273 81.4551C65.5418 81.4551 69.4545 85.3678 69.4545 90.1824C69.4545 94.9969 65.5418 98.9096 60.7273 98.9096ZM60.7273 84.3642C57.5127 84.3642 54.9091 86.9678 54.9091 90.1824C54.9091 93.3969 57.5127 96.0005 60.7273 96.0005C63.9418 96.0005 66.5455 93.3969 66.5455 90.1824C66.5455 86.9678 63.9418 84.3642 60.7273 84.3642Z" fill="#1428A0"/>
<path d="M60.7275 93.0906C59.1275 93.0906 57.8184 91.7816 57.8184 90.1816C57.8184 88.5816 59.1275 87.2725 60.7275 87.2725C62.3275 87.2725 63.6365 88.5816 63.6365 90.1816C63.6365 91.7816 62.3275 93.0906 60.7275 93.0906Z" fill="#1428A0"/>
<path d="M79.6361 56.7273C77.2361 56.7273 75.2725 54.7636 75.2725 52.3636C75.2725 49.9636 77.2361 48 79.6361 48C82.0361 48 83.9997 49.9636 83.9997 52.3636C83.9997 54.7636 82.0361 56.7273 79.6361 56.7273ZM79.6361 50.9091C78.8361 50.9091 78.1816 51.5636 78.1816 52.3636C78.1816 53.1636 78.8361 53.8182 79.6361 53.8182C80.4361 53.8182 81.0906 53.1636 81.0906 52.3636C81.0906 51.5636 80.4361 50.9091 79.6361 50.9091Z" fill="#1428A0"/>
<path d="M94.182 56.7273C91.782 56.7273 89.8184 54.7636 89.8184 52.3636C89.8184 49.9636 91.782 48 94.182 48C96.582 48 98.5456 49.9636 98.5456 52.3636C98.5456 54.7636 96.582 56.7273 94.182 56.7273ZM94.182 50.9091C93.382 50.9091 92.7275 51.5636 92.7275 52.3636C92.7275 53.1636 93.382 53.8182 94.182 53.8182C94.982 53.8182 95.6365 53.1636 95.6365 52.3636C95.6365 51.5636 94.982 50.9091 94.182 50.9091Z" fill="#1428A0"/>
</g>
<defs>
<clipPath id="clip0_246_3420">
<rect width="55.2727" height="64" fill="white" transform="translate(52 48)"/>
</clipPath>
</defs>
</svg>
