<svg width="160" height="160" viewBox="0 0 160 160" fill="none" xmlns="http://www.w3.org/2000/svg">
<circle cx="80" cy="80" r="80" fill="white"/>
<g clip-path="url(#clip0_246_3352)">
<path d="M73.236 98.4912C66.4929 98.4912 60.1512 95.8638 55.3812 91.0947C45.537 81.2525 45.537 65.2387 55.3812 55.3965C60.1512 50.6274 66.4929 48 73.236 48C79.979 48 86.3207 50.6274 91.0907 55.3965C100.935 65.2387 100.935 81.2525 91.0907 91.0947C86.3207 95.8638 79.979 98.4912 73.236 98.4912ZM73.236 50.5598C67.1731 50.5598 61.4778 52.9211 57.1937 57.2044C48.3508 66.0498 48.3508 80.4372 57.1937 89.2826C61.4778 93.5658 67.1773 95.9271 73.236 95.9271C79.2946 95.9271 84.9941 93.5658 89.2782 89.2826C98.1211 80.4372 98.1211 66.0498 89.2782 57.2044C84.9941 52.9211 79.2946 50.5598 73.236 50.5598Z" fill="black"/>
<path d="M91.0065 89.194L89.1963 91.0039L93.7876 95.5943L95.5979 93.7845L91.0065 89.194Z" fill="black"/>
<path d="M105.912 112C104.353 112 102.794 111.408 101.606 110.221L90.3721 98.9934C90.1313 98.7526 89.9961 98.4274 89.9961 98.0894C89.9961 97.7515 90.1313 97.4262 90.3721 97.1855L97.1743 90.3846C97.6729 89.8861 98.4841 89.8861 98.9826 90.3846L110.213 101.612C112.587 103.991 112.587 107.851 110.213 110.225C109.025 111.412 107.466 112.004 105.907 112.004L105.912 112ZM93.0888 98.0852L103.415 108.409C104.792 109.786 107.031 109.786 108.404 108.409C109.777 107.032 109.782 104.793 108.404 103.416L98.0785 93.0923L93.0846 98.0852H93.0888Z" fill="black"/>
<path d="M73.2357 74.4689C70.6627 74.4689 68.4995 72.5427 68.2038 69.9913L67.9672 67.9426C67.7982 66.5106 68.2545 65.0744 69.2136 63.993C70.1726 62.9159 71.55 62.2949 72.9949 62.2949H73.4681C74.9131 62.2949 76.2904 62.9159 77.2495 63.993C78.2085 65.0702 78.6648 66.5106 78.4958 67.9426L78.2592 69.9913C77.9635 72.5427 75.8003 74.4689 73.2273 74.4689H73.2357ZM72.9991 64.8548C72.2724 64.8548 71.6091 65.1504 71.1275 65.6954C70.6458 66.236 70.4261 66.9288 70.5106 67.6469L70.7472 69.6956C70.8909 70.9586 71.9598 71.9091 73.2315 71.9091C74.5032 71.9091 75.5721 70.9586 75.7158 69.6956L75.9524 67.6469C76.0369 66.9288 75.8214 66.236 75.3355 65.6954C74.8539 65.1547 74.1906 64.8548 73.4639 64.8548H72.9907H72.9991Z" fill="#1428A0"/>
<path d="M84.571 87.8507H82.0107V83.1999C82.0107 81.5314 80.5573 80.0445 78.4701 79.584C75.0479 78.8279 71.4271 78.8279 68.0091 79.584C65.9219 80.0445 64.4685 81.5271 64.4685 83.1999V87.8507H61.9082V83.1999C61.9082 80.319 64.1897 77.8057 67.4598 77.0833C71.2412 76.247 75.2422 76.247 79.0236 77.0833C82.2937 77.8014 84.5752 80.319 84.5752 83.1999V87.8507H84.571Z" fill="#1428A0"/>
<path d="M73.2358 92.0789C68.4108 92.0789 63.5817 90.2456 59.9059 86.5706C52.5587 79.2248 52.5587 67.2705 59.9059 59.9205C67.2532 52.5747 79.2099 52.5747 86.5613 59.9205C93.9086 67.2663 93.9086 79.2248 86.5613 86.5706C82.8898 90.2456 78.0607 92.0789 73.2315 92.0789H73.2358ZM73.2358 56.972C69.0657 56.972 64.8956 58.5603 61.7185 61.7326C55.3683 68.0815 55.3683 78.4138 61.7185 84.7627C68.0686 91.1116 78.4029 91.1116 84.753 84.7627C91.1032 78.4138 91.1032 68.0857 84.753 61.7326C81.5759 58.5603 77.4058 56.972 73.2358 56.972Z" fill="black"/>
</g>
<defs>
<clipPath id="clip0_246_3352">
<rect width="64" height="64" fill="white" transform="translate(48 48)"/>
</clipPath>
</defs>
</svg>
