<svg width="160" height="160" viewBox="0 0 160 160" fill="none" xmlns="http://www.w3.org/2000/svg">
<circle cx="80" cy="80" r="80" fill="white"/>
<path d="M91.9056 96C88.3377 91.8923 89.1104 86.9763 90.2655 84.2934L86.3153 80.294C83.2282 77.1611 83.2282 72.0702 86.3153 68.9374C87.5484 67.6917 89.5585 67.6834 90.7917 68.9374L103 82.902L101.134 84.5725L88.9789 70.6663C88.7693 70.4538 88.3418 70.4538 88.0746 70.7204C85.9576 72.8659 85.9576 76.3613 88.0746 78.5068L92.6578 83.1477C93.0525 83.5477 93.1347 84.1768 92.8593 84.6684C92.7401 84.8808 89.9654 89.9384 93.7759 94.3253L91.9056 95.9917V96Z" fill="black"/>
<path d="M112 111H109.444V106.47C109.444 105.897 108.955 105.431 108.352 105.431H85.6483C85.0451 105.431 84.5559 105.897 84.5559 106.47V111H82V106.47C82 104.557 83.6364 103 85.6483 103H108.352C110.364 103 112 104.557 112 106.47V111Z" fill="black"/>
<path d="M87 104H84.582V99.075C80.1012 94.3333 79.0678 88.8542 79 85.0458L81.418 85C81.4778 88.4333 82.4314 93.4125 86.6289 97.6375C86.8643 97.875 87 98.2042 87 98.5458V104Z" fill="black"/>
<path d="M110 104H107.428V79.2703C107.428 78.3239 107.029 77.4022 106.329 76.7397L99 69.7817L100.799 68L108.128 74.9581C109.317 76.0855 110 77.6573 110 79.2703V104Z" fill="black"/>
<path d="M90.4281 87H49.2885C48.5784 87 48 86.4273 48 85.7241V50.2759C48 49.5727 48.5784 49 49.2885 49H99.7115C100.422 49 101 49.5727 101 50.2759V80.9657H98.4229V51.5519H50.5771V84.4481H90.4281V87Z" fill="black"/>
<path d="M85 57H56V59.5H85V57Z" fill="#1428A0"/>
<path d="M76 65H56V67.5H76V65Z" fill="#1428A0"/>
<path d="M76 74H56V76.5H76V74Z" fill="#1428A0"/>
</svg>
