<svg width="160" height="160" viewBox="0 0 160 160" fill="none" xmlns="http://www.w3.org/2000/svg">
<circle cx="80" cy="80" r="80" fill="white"/>
<g clip-path="url(#clip0_246_3366)">
<path d="M95.0325 112H64.9417C62.0483 112 59.6914 109.644 59.6914 106.75V86.6319H62.2511V106.75C62.2511 108.233 63.4591 109.441 64.9417 109.441H95.0325C96.5151 109.441 97.7231 108.233 97.7231 106.75V75.9033H100.283V106.75C100.283 109.644 97.9258 112 95.0325 112Z" fill="black"/>
<path d="M62.2511 71.4805H59.6914V53.2503C59.6914 50.3569 62.0483 48 64.9417 48H95.0325C97.9258 48 100.283 50.3569 100.283 53.2503V61.2418H97.7231V53.2503C97.7231 51.7677 96.5151 50.5597 95.0325 50.5597H64.9417C63.4591 50.5597 62.2511 51.7677 62.2511 53.2503V71.4805Z" fill="black"/>
<path d="M99.0034 99.1973H60.9717V101.757H99.0034V99.1973Z" fill="black"/>
<path d="M82.5085 104.316H77.4609V106.876H82.5085V104.316Z" fill="black"/>
<path d="M69.3854 94.2638C69.0982 94.2638 68.8152 94.1667 68.5829 93.9808L61.0602 87.9069H49.2798C48.5744 87.9069 48 87.3324 48 86.6271V71.2691C48 70.5595 48.5744 69.9893 49.2798 69.9893H76.0845C76.7899 69.9893 77.3643 70.5637 77.3643 71.2691V86.6271C77.3643 87.3324 76.7899 87.9069 76.0845 87.9069H70.6653V92.984C70.6653 93.4782 70.3823 93.9259 69.9388 94.1371C69.7614 94.2216 69.5755 94.2638 69.3854 94.2638ZM50.5597 85.3472H61.5121C61.8036 85.3472 62.0866 85.4486 62.3147 85.6302L68.1056 90.3018V86.6228C68.1056 85.9132 68.68 85.343 69.3854 85.343H74.8046V72.5447H50.5597V85.343V85.3472Z" fill="#1428A0"/>
<path d="M64.0249 77.6807H61.3428V80.2403H64.0249V77.6807Z" fill="#1428A0"/>
<path d="M57.3218 77.6807H54.6396V80.2403H57.3218V77.6807Z" fill="#1428A0"/>
<path d="M70.7241 77.6807H68.042V80.2403H70.7241V77.6807Z" fill="#1428A0"/>
<path d="M90.6149 83.5353C90.4291 83.5353 90.239 83.4931 90.0616 83.4086C89.6181 83.1974 89.3351 82.7454 89.3351 82.2555V77.1784H83.9117C83.2063 77.1784 82.6318 76.6039 82.6318 75.8985V60.5406C82.6318 59.831 83.2063 59.2607 83.9117 59.2607H110.716C111.422 59.2607 111.996 59.8352 111.996 60.5406V75.8985C111.996 76.6039 111.422 77.1784 110.716 77.1784H98.936L91.4133 83.2523C91.1809 83.4381 90.8979 83.5353 90.6107 83.5353H90.6149ZM85.1915 74.6187H90.6149C91.3203 74.6187 91.8948 75.1932 91.8948 75.8985V79.5775L97.6815 74.9059C97.9096 74.7201 98.1926 74.6229 98.484 74.6229H109.436V61.8246H85.1915V74.6229V74.6187Z" fill="#1428A0"/>
<path d="M98.6568 66.9521H95.9746V69.5118H98.6568V66.9521Z" fill="#1428A0"/>
<path d="M105.356 66.9521H102.674V69.5118H105.356V66.9521Z" fill="#1428A0"/>
<path d="M91.9536 66.9521H89.2715V69.5118H91.9536V66.9521Z" fill="#1428A0"/>
</g>
<defs>
<clipPath id="clip0_246_3366">
<rect width="64" height="64" fill="white" transform="translate(48 48)"/>
</clipPath>
</defs>
</svg>
