<svg width="160" height="160" viewBox="0 0 160 160" fill="none" xmlns="http://www.w3.org/2000/svg">
<circle cx="80" cy="80" r="80" fill="white"/>
<path d="M107.739 95H52.2613C51.5661 95 51 94.4463 51 93.7663V56.2337C51 55.5497 51.5661 55 52.2613 55H107.739C108.434 55 109 55.5537 109 56.2337V93.7663C109 94.4503 108.434 95 107.739 95ZM53.5226 92.5326H106.477V57.4674H53.5226V92.5326Z" fill="black"/>
<path d="M107.279 57.5H52.7212C50.6703 57.5 49 55.7712 49 53.6441V49.7839C49 49.0763 49.5568 48.5 50.2404 48.5H109.76C110.443 48.5 111 49.0763 111 49.7839V53.6441C111 55.7669 109.33 57.4958 107.279 57.4958V57.5ZM51.4808 51.0678V53.6441C51.4808 54.3517 52.0376 54.928 52.7212 54.928H107.279C107.962 54.928 108.519 54.3517 108.519 53.6441V51.0678H51.4808Z" fill="black"/>
<path d="M81 93H79V111H81V93Z" fill="black"/>
<path d="M92.5119 111L80.002 100.81L67.4881 111L66 109.064L79.258 98.266C79.6933 97.9113 80.3107 97.9113 80.746 98.266L94 109.064L92.5119 111Z" fill="black"/>
<path d="M62.2599 87.075L60.5078 85.3376L73.4564 72.4984C73.9394 72.0194 74.7254 72.0194 75.2085 72.4984L81.7462 78.9809L95.62 65.2284H93.0041V62.7686H98.6166C99.1202 62.7686 99.5705 63.0689 99.7629 63.5276C99.9553 63.9863 99.8489 64.5181 99.4927 64.8672L82.6264 81.591C82.1433 82.07 81.3573 82.07 80.8743 81.591L74.3365 75.1085L62.264 87.079L62.2599 87.075Z" fill="#1428A0"/>
<path d="M99.8573 63.9941H97.3765V69.5593H99.8573V63.9941Z" fill="#1428A0"/>
</svg>
