<svg width="40" height="40" viewBox="0 0 40 40" fill="none" xmlns="http://www.w3.org/2000/svg">
<g id="logo">
<g id="Group 264">
<path id="Vector" d="M36.0705 27.295C35.9866 26.9783 35.8506 26.6778 35.6683 26.4056C35.7074 26.2622 35.737 26.1165 35.757 25.9695C35.8864 25.0358 35.5628 24.1809 34.9527 23.5193C34.6222 23.1581 34.268 22.9197 33.8928 22.7733C34.1391 21.7197 34.2638 20.6414 34.2644 19.5593C34.2644 19.0653 34.2364 18.5812 34.1895 18.1043C34.165 17.8662 34.1355 17.6286 34.1009 17.3917C33.9934 16.6928 33.8341 16.0028 33.6241 15.3276C33.4864 14.884 33.3272 14.4473 33.147 14.0192C32.8769 13.3852 32.5614 12.7714 32.2031 12.1826C31.968 11.791 31.712 11.4123 31.4363 11.0481C31.3011 10.8642 31.1603 10.6846 31.0138 10.5097C30.5797 9.98206 30.1081 9.48664 29.6024 9.02731C29.4345 8.87291 29.2619 8.72383 29.0845 8.58028C28.91 8.43469 28.7316 8.29375 28.5495 8.15763C28.1831 7.88494 27.8044 7.6291 27.4147 7.39091C25.2614 6.0831 22.7363 5.33325 20.0374 5.33325C12.1794 5.33325 5.81049 11.7023 5.81049 19.56C5.81029 20.6556 5.93723 21.7475 6.18878 22.8137C5.85128 22.9603 5.52768 23.1886 5.22784 23.519C4.61784 24.1801 4.29409 25.032 4.42362 25.9656C4.44315 26.114 4.47284 26.2609 4.51221 26.4053C4.32998 26.6776 4.19409 26.9783 4.11003 27.295C3.92253 28.0076 3.98424 28.6503 4.22253 29.2133C3.96362 29.9493 4.02831 30.7331 4.36565 31.4145C4.61096 31.9122 4.96206 32.297 5.39471 32.6412C5.90924 33.0501 6.55331 33.3978 7.33034 33.7311C8.25721 34.1264 9.38846 34.4978 9.90299 34.634C11.2321 34.9783 12.5064 35.1964 13.7981 35.2068C15.6381 35.224 17.2228 34.7912 18.3575 33.6839C18.9149 33.7522 19.4758 33.7864 20.0374 33.7862C20.6306 33.785 21.2233 33.7475 21.812 33.6743C22.9439 34.7887 24.5347 35.2254 26.3816 35.2078C27.673 35.1976 28.9474 34.9795 30.273 34.6348C30.7909 34.4986 31.9219 34.1272 32.8492 33.732C33.6263 33.3979 34.2702 33.0504 34.7883 32.642C35.2177 32.2979 35.5684 31.9129 35.8139 31.4153C36.1547 30.7339 36.2161 29.9501 35.9605 29.214C36.1966 28.6511 36.2578 28.007 36.0705 27.295ZM34.7519 29.1656C35.013 29.6611 35.0297 30.2209 34.7992 30.7423C34.4499 31.5326 33.582 32.155 31.8966 32.8233C30.8486 33.239 29.8888 33.5047 29.8803 33.5072C28.4941 33.8667 27.2403 34.0492 26.155 34.0492C24.3578 34.0492 23.0206 33.5534 22.1725 32.574C20.7383 32.8183 19.2738 32.8265 17.8369 32.5986C16.9878 33.5617 15.658 34.0492 13.8759 34.0492C12.7905 34.0492 11.5369 33.8667 10.1507 33.5072C10.1421 33.5047 9.18284 33.239 8.1344 32.8233C6.44893 32.155 5.58096 31.5329 5.23174 30.7423C5.00128 30.2209 5.01799 29.6611 5.27909 29.1656C5.30331 29.1197 5.32909 29.0747 5.35674 29.0314C5.20024 28.7964 5.09529 28.5308 5.04874 28.2523C5.00221 27.9739 5.01517 27.6886 5.08674 27.4154C5.19049 27.0214 5.40487 26.6936 5.69581 26.4581C5.55571 26.2278 5.46376 25.9715 5.42549 25.7047C5.34174 25.1243 5.53424 24.5448 5.96768 24.0725C6.30503 23.7048 6.78206 23.5025 7.31034 23.5025H7.3244C6.92617 22.2261 6.72423 20.8965 6.72549 19.5595C6.72549 12.267 12.6375 6.35481 19.9308 6.35481C27.2242 6.35481 33.1361 12.2665 33.1361 19.5595C33.137 20.9001 32.9338 22.2331 32.5331 23.5125C32.5969 23.5062 32.6594 23.5029 32.7206 23.5029C33.2488 23.5029 33.7259 23.7051 34.0633 24.0728C34.4964 24.5448 34.6894 25.1248 34.6055 25.705C34.5672 25.9718 34.4753 26.2283 34.3352 26.4586C34.6261 26.6939 34.8405 27.0217 34.9442 27.4159C35.0156 27.689 35.0286 27.9742 34.982 28.2528C34.9355 28.5312 34.8306 28.7967 34.6742 29.0318C34.7019 29.0747 34.728 29.1197 34.7519 29.1656Z" fill="white"/>
<path id="Vector_2" d="M34.6744 29.0316C34.8308 28.7965 34.9356 28.531 34.9822 28.2525C35.0288 27.974 35.0158 27.6888 34.9444 27.4157C34.8406 27.0216 34.6263 26.6938 34.3353 26.4583C34.4753 26.228 34.5674 25.9718 34.6056 25.7049C34.6894 25.1246 34.4969 24.545 34.0635 24.0727C33.7261 23.705 33.2489 23.5027 32.7208 23.5027C32.6594 23.5027 32.5971 23.5058 32.5333 23.5122C32.9335 22.2329 33.1364 20.8999 33.1352 19.5594C33.1352 12.2671 27.2232 6.35474 19.9305 6.35474C12.6378 6.35474 6.72518 12.2664 6.72518 19.5594C6.72392 20.8965 6.92586 22.226 7.32409 23.5024H7.31003C6.7819 23.5024 6.30487 23.7047 5.96753 24.0724C5.5344 24.5444 5.34159 25.1243 5.42534 25.7046C5.46357 25.9715 5.55553 26.2277 5.69565 26.458C5.40472 26.6935 5.19034 27.0213 5.08675 27.4155C5.01522 27.6886 5.00231 27.974 5.0489 28.2525C5.0955 28.531 5.20051 28.7966 5.35706 29.0316C5.32909 29.0749 5.30346 29.1199 5.2794 29.1658C5.01846 29.6613 5.00159 30.2211 5.23206 30.7425C5.58128 31.5327 6.44925 32.1554 8.13471 32.8235C9.18268 33.2393 10.1425 33.5049 10.151 33.5074C11.5372 33.8669 12.7908 34.0496 13.8761 34.0496C15.6583 34.0496 16.988 33.5621 17.8372 32.5988C19.2741 32.8268 20.7386 32.8185 22.1728 32.5743C23.0208 33.5536 24.3581 34.0496 26.1553 34.0496C27.2406 34.0496 28.4944 33.8669 29.8806 33.5074C29.8891 33.5049 30.8485 33.2393 31.8969 32.8235C33.5824 32.1554 34.4503 31.5327 34.7996 30.7425C35.03 30.2211 35.0133 29.6613 34.7522 29.1658C34.7283 29.1194 34.7021 29.0746 34.6744 29.0316ZM17.2296 31.091C17.1564 31.219 17.0782 31.3438 16.9947 31.4652C16.7752 31.7866 16.4864 32.0321 16.1514 32.2147C15.5107 32.564 14.6999 32.6861 13.876 32.6861C12.5747 32.6861 11.2407 32.3816 10.4928 32.1875C10.4561 32.178 5.9094 30.8938 6.48503 29.8007C6.5819 29.6169 6.74143 29.5435 6.94206 29.5435C7.75253 29.5435 9.22832 30.7504 9.8627 30.7504C10.0043 30.7504 10.1042 30.6899 10.145 30.5429C10.4153 29.5733 6.03675 29.1658 6.4055 27.7621C6.47065 27.5136 6.64706 27.4129 6.89534 27.4129C7.96675 27.4127 10.3717 29.2971 10.8747 29.2971C10.9133 29.2971 10.941 29.2858 10.956 29.2621L10.9625 29.2513C11.1985 28.8615 11.0632 28.578 9.44565 27.5874L9.29034 27.4929C7.51065 26.4155 6.26128 25.7674 6.9719 24.994C7.05362 24.9046 7.1694 24.865 7.31018 24.865C7.47721 24.865 7.67925 24.921 7.90175 25.0146C8.84175 25.411 10.1446 26.4921 10.6888 26.9636C10.8492 27.1033 10.9438 27.1886 10.9438 27.1886C10.9438 27.1886 11.6328 27.9052 12.0496 27.9052C12.1455 27.9052 12.2267 27.8675 12.2819 27.774C12.5775 27.2758 9.53768 24.9724 9.36628 24.0221C9.25018 23.378 9.44784 23.0519 9.81362 23.0519C9.98737 23.0519 10.1996 23.1258 10.4338 23.2744C11.1603 23.7357 12.5632 26.1463 13.0767 27.084C13.2489 27.3983 13.5428 27.5311 13.8077 27.5311C14.3332 27.5311 14.7439 27.0088 13.8558 26.345C12.521 25.3461 12.9894 23.7136 13.6264 23.6132C13.6536 23.609 13.6811 23.6068 13.7085 23.6066C14.2878 23.6066 14.5435 24.605 14.5435 24.605C14.5435 24.605 15.2924 26.486 16.5791 27.7716C17.7467 28.9386 17.9097 29.8965 17.2296 31.091ZM21.3903 31.3113L21.3236 31.3193L21.2097 31.3324C21.1499 31.3385 21.09 31.3444 21.0299 31.35L20.9711 31.3554L20.9177 31.3599L20.8416 31.366C20.8136 31.368 20.7857 31.3702 20.7577 31.3719L20.6739 31.3775L20.6555 31.3786L20.5896 31.3825L20.5616 31.384L20.4835 31.3879L20.3927 31.3916L20.3102 31.3944L20.2552 31.396H20.2274C20.2102 31.396 20.1932 31.3969 20.176 31.3971H20.1486C20.1314 31.3971 20.1144 31.3971 20.0972 31.398L20.0274 31.3988H19.9296C19.8528 31.3988 19.7764 31.398 19.7 31.3966L19.6382 31.3952C19.6207 31.3952 19.603 31.3943 19.5855 31.3938L19.52 31.3918L19.4385 31.3886L19.3652 31.3855L19.3461 31.3847L19.2763 31.381C19.2569 31.3799 19.2375 31.379 19.2183 31.3777L19.1732 31.375C19.1164 31.3715 19.0597 31.3674 19.003 31.363L18.9436 31.3583L18.8686 31.3519L18.781 31.3438C18.7321 31.3393 18.6832 31.3343 18.6342 31.3288H18.6319C19.346 29.7358 18.9849 28.2482 17.5419 26.8063C16.5957 25.8613 15.966 24.4655 15.8355 24.1591C15.5711 23.2521 14.8713 22.2438 13.7092 22.2438C13.611 22.244 13.513 22.2518 13.416 22.2671C12.9067 22.3471 12.4617 22.6402 12.1442 23.0811C11.8013 22.6544 11.4677 22.3152 11.1661 22.1235C10.7114 21.8354 10.2578 21.6891 9.81565 21.6891C9.26409 21.6891 8.77081 21.9157 8.42706 22.3266L8.41846 22.3371L8.39909 22.2557L8.39831 22.2522C8.33293 21.9725 8.27801 21.6904 8.23362 21.4066C8.23362 21.4046 8.23362 21.4027 8.23268 21.4008L8.223 21.3366C8.21776 21.3019 8.21265 21.2671 8.20768 21.2324C8.20362 21.2035 8.19956 21.1746 8.19581 21.1458C8.19206 21.1171 8.188 21.0882 8.18456 21.0593C8.18081 21.0302 8.17737 21.0013 8.17393 20.9724C8.17064 20.9449 8.16746 20.9174 8.1644 20.8899L8.16348 20.8829C8.14939 20.756 8.13731 20.629 8.12721 20.5018L8.12175 20.4282C8.12018 20.408 8.11878 20.3877 8.11753 20.3672C8.11753 20.3625 8.1169 20.3577 8.11659 20.3533L8.11145 20.2718C8.10957 20.2422 8.10815 20.2127 8.10659 20.1832C8.10503 20.1538 8.10346 20.1243 8.10221 20.0946L8.09909 20.0172L8.09815 19.9938L8.09581 19.9222L8.09411 19.8616C8.09411 19.8374 8.093 19.813 8.09253 19.7888L8.09128 19.7124C8.09096 19.6869 8.09128 19.6616 8.09065 19.6361C8.08987 19.6105 8.09065 19.585 8.09065 19.5594C8.09065 13.02 13.3924 7.71831 19.9324 7.71831C26.4724 7.71831 31.7739 13.0197 31.7739 19.5594V19.7124C31.7739 19.7379 31.7733 19.7635 31.7727 19.7888C31.7727 19.81 31.7719 19.8308 31.7713 19.8521C31.7713 19.871 31.7705 19.8897 31.7697 19.908C31.7697 19.9319 31.7683 19.9557 31.7675 19.9796V19.9816C31.7655 20.0335 31.7633 20.0854 31.7611 20.1372L31.7602 20.1544L31.7561 20.2319L31.7524 20.2933C31.7436 20.4388 31.7322 20.5843 31.7183 20.7294V20.7315C31.7158 20.7586 31.713 20.786 31.71 20.8132C31.7031 20.8765 31.6961 20.9397 31.6891 21.003L31.6811 21.0666L31.6713 21.1413C31.6678 21.1686 31.6641 21.1958 31.6602 21.223C31.656 21.2535 31.6514 21.2838 31.6471 21.3141L31.6361 21.3857L31.6233 21.4669C31.6189 21.494 31.6146 21.5208 31.6094 21.5479C31.6041 21.5747 31.6 21.6016 31.5953 21.6286C31.586 21.6824 31.5763 21.736 31.5658 21.7896C31.545 21.8963 31.5233 22.0027 31.5003 22.109C31.4946 22.1354 31.4886 22.1619 31.4825 22.1883C31.1492 21.8644 30.708 21.688 30.2211 21.688C29.7794 21.688 29.3253 21.8341 28.8708 22.1224C28.5691 22.314 28.2358 22.6533 27.8925 23.08C27.5746 22.639 27.1296 22.346 26.621 22.2658C26.5239 22.2507 26.4258 22.2429 26.3275 22.2427C25.1652 22.2427 24.4658 23.251 24.2013 24.158C24.0702 24.4644 23.4405 25.86 22.4932 26.8066C21.0513 28.2438 20.6874 29.7249 21.3903 31.3113ZM33.6153 28.1226L33.6106 28.1365C33.6074 28.1454 33.6041 28.1543 33.6005 28.163C33.5949 28.1763 33.5889 28.1893 33.5827 28.2022C33.5675 28.2332 33.5503 28.2632 33.5314 28.2919C33.5053 28.3308 33.4767 28.368 33.4457 28.403C33.4385 28.4111 33.4316 28.4191 33.4235 28.4271C33.4125 28.4391 33.4008 28.4508 33.3892 28.4625C33.1788 28.6711 32.8581 28.8538 32.4956 29.0216C32.4546 29.0402 32.413 29.0588 32.3708 29.0774L32.3289 29.096C32.301 29.1083 32.2731 29.1207 32.2438 29.1327C32.2152 29.1449 32.1864 29.1569 32.1577 29.1688L32.0705 29.2049C31.8666 29.2888 31.6577 29.3686 31.4538 29.4477L31.3667 29.4815L31.2805 29.5152C31.2233 29.5375 31.1667 29.5599 31.111 29.5822L31.028 29.6157L30.9466 29.6491L30.9064 29.6658C30.8799 29.6771 30.8536 29.688 30.8277 29.6993C30.228 29.9565 29.7967 30.2182 29.8874 30.543C29.8899 30.5522 29.8927 30.561 29.8958 30.5694C29.9039 30.5935 29.915 30.6163 29.9288 30.6376C29.9369 30.6504 29.9463 30.6624 29.9567 30.6733C30.0633 30.784 30.2572 30.7665 30.5017 30.6786C30.5216 30.6715 30.5419 30.6638 30.5624 30.6557C30.5764 30.6504 30.5903 30.6447 30.6044 30.6391L30.6255 30.6302C30.6814 30.6065 30.7407 30.58 30.8013 30.5511C30.8164 30.5441 30.8317 30.5372 30.8471 30.5291C31.146 30.383 31.4849 30.186 31.8211 30.0068C31.8727 29.9788 31.9244 29.9521 31.9758 29.9255C32.0599 29.8819 32.1447 29.8399 32.2303 29.7997C32.5488 29.65 32.848 29.5438 33.0888 29.5438C33.2016 29.5438 33.3014 29.5669 33.3844 29.6201L33.3983 29.6293C33.4403 29.659 33.4769 29.6954 33.5067 29.7372C33.5136 29.7471 33.5208 29.7572 33.5269 29.7677C33.5335 29.7785 33.5397 29.7896 33.5456 29.8008C33.6646 30.0265 33.565 30.2604 33.3322 30.4896C33.1086 30.7096 32.7608 30.9254 32.3653 31.1252C32.3361 31.14 32.3066 31.1549 32.2769 31.1693C31.1002 31.7471 29.5596 32.1822 29.538 32.1877C29.1274 32.2941 28.5402 32.434 27.8788 32.5385L27.7808 32.5536L27.7649 32.556C27.6149 32.5785 27.4644 32.5983 27.3136 32.6155L27.2997 32.6169C27.0255 32.6482 26.7442 32.6708 26.4625 32.6804H26.4583C26.3571 32.6841 26.256 32.6858 26.1547 32.6858H26.0381C25.8838 32.6836 25.7296 32.6768 25.5757 32.6649C25.5721 32.6649 25.5683 32.6649 25.5646 32.6641C25.5096 32.6599 25.4544 32.6547 25.3996 32.6486C25.3052 32.6385 25.211 32.626 25.1171 32.6113C25.0805 32.6052 25.0414 32.5988 25.0038 32.5922C24.9866 32.5891 24.9696 32.586 24.9525 32.5826L24.9485 32.5818C24.8942 32.5715 24.8403 32.5601 24.7866 32.5477C24.7555 32.5407 24.7242 32.5336 24.6935 32.5254L24.675 32.5205C24.6597 32.5168 24.6447 32.5127 24.6297 32.5086L24.6214 32.5065L24.5732 32.4925C24.5557 32.4875 24.5383 32.4824 24.5208 32.4772L24.5146 32.4754L24.4691 32.4615C24.4519 32.4561 24.4349 32.4505 24.4178 32.445C24.4038 32.4404 24.3899 32.4355 24.3758 32.431L24.345 32.4202C24.3153 32.4099 24.286 32.399 24.2566 32.3877L24.2288 32.3769L24.2058 32.3677C24.1616 32.3499 24.1175 32.3313 24.0739 32.3118L24.0449 32.2979L24.04 32.2957C24.0297 32.2908 24.0196 32.286 24.0092 32.2816C23.9891 32.2719 23.9691 32.2619 23.9492 32.2518L23.9433 32.2488L23.9146 32.2336C23.8635 32.2071 23.8133 32.1786 23.7642 32.1483L23.7374 32.1319C23.7235 32.1235 23.7108 32.1149 23.6975 32.1063L23.6625 32.083C23.6499 32.0746 23.6372 32.066 23.6249 32.0571L23.6024 32.0411C23.5786 32.0241 23.5553 32.0068 23.5324 31.9888C23.5202 31.9794 23.5082 31.9697 23.4961 31.9608C23.4694 31.9394 23.4433 31.9174 23.4175 31.8947L23.4164 31.8938C23.3913 31.8721 23.3667 31.8496 23.3428 31.8266L23.3416 31.8251C23.3291 31.8132 23.3169 31.8013 23.3047 31.789C23.2927 31.7766 23.2805 31.7644 23.2688 31.7521C23.2569 31.7396 23.245 31.7269 23.2335 31.714C23.2222 31.7018 23.2113 31.6894 23.2003 31.6769L23.1966 31.6727C23.1402 31.6072 23.0874 31.5386 23.0385 31.4672L23.0191 31.4386C23.0063 31.4197 22.9936 31.4007 22.9811 31.3816L22.9442 31.3249C22.9261 31.2972 22.9085 31.2693 22.8913 31.2411C22.8789 31.2211 22.8667 31.2011 22.8547 31.181C22.8446 31.1638 22.8344 31.1468 22.8247 31.1299C22.8192 31.1207 22.8141 31.1113 22.8089 31.1019C22.8038 31.0922 22.7977 31.0824 22.7922 31.0725L22.7835 31.0571C22.7805 31.0519 22.7796 31.0504 22.778 31.0469C22.7674 31.0283 22.7571 31.0094 22.7471 30.9902C22.7425 30.9819 22.738 30.9735 22.7332 30.9652L22.7191 30.9383L22.7052 30.9116L22.6783 30.8574C22.6739 30.8485 22.6697 30.8396 22.6655 30.8307C22.6563 30.8115 22.6475 30.7925 22.6388 30.7736C22.6353 30.766 22.6317 30.7583 22.6286 30.7507C22.6166 30.7246 22.6052 30.6982 22.5944 30.6715C22.5871 30.6538 22.5803 30.6363 22.5732 30.6188C22.553 30.5672 22.5341 30.5152 22.5167 30.4626C22.5116 30.4469 22.5064 30.4315 22.5019 30.4158C22.4907 30.3804 22.4805 30.3446 22.4714 30.3085C22.4603 30.2665 22.4505 30.224 22.4422 30.1813C22.4369 30.1561 22.4322 30.1308 22.4283 30.1054C22.4241 30.0802 22.4205 30.055 22.4175 30.03C22.4111 29.9802 22.4066 29.9302 22.4039 29.88C22.4039 29.8718 22.4032 29.8633 22.403 29.855C22.4022 29.8385 22.4017 29.8219 22.4016 29.8054C22.3928 29.1379 22.7308 28.4958 23.4532 27.7738C24.7397 26.4883 25.4888 24.6072 25.4888 24.6072C25.4888 24.6072 25.5089 24.5283 25.551 24.4149C25.565 24.3772 25.5797 24.3397 25.5952 24.3027C25.6128 24.2608 25.6317 24.2194 25.6521 24.1788L25.658 24.1669C25.6841 24.115 25.7124 24.0646 25.7431 24.0154C25.7502 24.004 25.7571 23.9925 25.7652 23.9813C25.788 23.9472 25.8122 23.9143 25.8377 23.8822C25.8574 23.8577 25.8783 23.834 25.9003 23.8115C25.975 23.7346 26.0602 23.6718 26.1566 23.6382L26.1688 23.6343C26.1769 23.6316 26.1849 23.6291 26.1931 23.6268C26.2028 23.6243 26.2125 23.6219 26.2222 23.6199L26.2266 23.6191C26.2471 23.615 26.2675 23.6122 26.2883 23.6108H26.2902C26.301 23.6108 26.3117 23.6097 26.3228 23.6097C26.3505 23.6099 26.378 23.6121 26.4053 23.6163C26.5213 23.6346 26.6317 23.7036 26.7267 23.8102L26.7396 23.8252C26.7705 23.8615 26.7986 23.9002 26.8236 23.9408C26.8424 23.971 26.86 24.0027 26.8767 24.036C26.8835 24.05 26.8899 24.0629 26.8963 24.0766C26.8994 24.0836 26.9025 24.0905 26.9055 24.0977C26.9117 24.1116 26.9175 24.1257 26.9233 24.1404C26.956 24.2241 26.9813 24.3105 26.9991 24.3986C27.018 24.4938 27.0289 24.5904 27.0321 24.6874C27.0331 24.7301 27.0331 24.7732 27.0321 24.8169C27.0313 24.8335 27.0305 24.8502 27.0292 24.8669C27.0164 25.0527 26.976 25.2355 26.9091 25.4094C26.9024 25.4266 26.895 25.4441 26.8881 25.4616C26.8546 25.5419 26.8155 25.6197 26.7714 25.6947C26.7463 25.7375 26.7191 25.7801 26.69 25.8222L26.6722 25.8475C26.6033 25.9438 26.5264 26.0341 26.4424 26.1175C26.3596 26.2005 26.2708 26.2772 26.1769 26.3474C26.0827 26.4169 25.9944 26.4941 25.9128 26.578C25.678 26.8246 25.6233 27.0419 25.6761 27.2068C25.6824 27.2254 25.6897 27.2436 25.6982 27.2613C25.7177 27.2996 25.743 27.3347 25.7733 27.3654L25.7816 27.3736C25.7902 27.3819 25.7992 27.3899 25.8085 27.3975L25.8178 27.4052C25.8406 27.4227 25.8647 27.4383 25.8899 27.4519C25.8971 27.4558 25.9038 27.4597 25.9121 27.4635C25.9466 27.4807 25.9827 27.4944 26.0199 27.5049L26.0302 27.5075L26.0441 27.5113L26.0563 27.5143L26.0692 27.5171L26.0822 27.5197L26.0946 27.5218C26.1038 27.5235 26.1131 27.5249 26.1224 27.5261L26.1314 27.5274L26.1475 27.5291L26.1575 27.53L26.1741 27.5313H26.1836L26.2008 27.5321H26.255L26.2705 27.5313L26.2883 27.5302L26.31 27.5282L26.3303 27.5257C26.3349 27.5257 26.3396 27.5244 26.3442 27.5236C26.4158 27.5132 26.4855 27.493 26.5514 27.4636C26.5655 27.4577 26.5794 27.4511 26.5922 27.4443C26.6197 27.4305 26.6464 27.415 26.6721 27.398C26.7078 27.3746 26.7416 27.3482 26.7733 27.3194L26.7953 27.2985C26.7988 27.295 26.8024 27.2918 26.8056 27.2882C26.8272 27.2666 26.8475 27.2438 26.8664 27.2199C26.8999 27.1777 26.9296 27.1329 26.9553 27.0857C27.2611 26.5297 27.5816 25.9819 27.9164 25.443L27.9624 25.3694L28.0088 25.2957C28.0321 25.2585 28.0553 25.2216 28.0786 25.1852L28.1022 25.1485L28.1492 25.0752C28.2124 24.9776 28.2756 24.881 28.3394 24.7854L28.3871 24.7141C28.4827 24.5725 28.5781 24.4347 28.6725 24.3036L28.7197 24.239C28.8224 24.0971 28.9294 23.9585 29.0405 23.8232L29.0847 23.7704C29.0919 23.7615 29.0986 23.7529 29.1066 23.7443L29.1499 23.6941C29.1571 23.6858 29.1639 23.6777 29.1714 23.6697L29.2133 23.6224L29.2344 23.5996C29.2547 23.5775 29.2753 23.5558 29.2963 23.5343C29.3103 23.5204 29.3233 23.5063 29.3369 23.4933C29.4161 23.4122 29.5035 23.3396 29.5977 23.2766L29.6194 23.2627L29.6414 23.2486C29.6555 23.2399 29.6697 23.2315 29.6842 23.2235C30.0536 23.014 30.3596 22.9985 30.5355 23.1744C30.6422 23.2811 30.7011 23.4579 30.698 23.7036C30.698 23.7146 30.698 23.7254 30.6971 23.7366V23.7488C30.6971 23.7599 30.6961 23.7713 30.6953 23.7827C30.6953 23.7966 30.6936 23.8107 30.6922 23.8246C30.6908 23.8386 30.6902 23.8493 30.6888 23.8616C30.6888 23.8652 30.688 23.8688 30.6875 23.8724C30.6864 23.8833 30.685 23.8944 30.6836 23.9054C30.6836 23.9088 30.6836 23.9121 30.6822 23.9155C30.6806 23.9304 30.6785 23.9452 30.6758 23.9599C30.6741 23.9735 30.6719 23.9871 30.6692 24.0007C30.6681 24.0085 30.6666 24.0161 30.6653 24.024C30.6613 24.0461 30.656 24.0682 30.6496 24.0897C30.6375 24.13 30.6228 24.1696 30.6055 24.208C30.598 24.2247 30.59 24.2415 30.5819 24.2579C30.565 24.2918 30.546 24.3265 30.525 24.3624C30.5146 24.3801 30.5038 24.3983 30.4922 24.4166L30.4747 24.4444C30.4569 24.4724 30.4383 24.5007 30.4189 24.5293C30.3996 24.5579 30.3788 24.5871 30.3564 24.6166C30.3275 24.656 30.2971 24.6961 30.2649 24.7368L30.2405 24.7676C30.1716 24.8533 30.101 24.9377 30.0288 25.0207L29.9714 25.0855L29.9422 25.1183C29.9024 25.1629 29.8624 25.2071 29.8221 25.251L29.7911 25.2844C29.7706 25.3066 29.7492 25.3291 29.7288 25.3515C29.7078 25.3741 29.6866 25.3966 29.6653 25.4191L29.601 25.4869L29.5358 25.5549C29.5141 25.5775 29.4922 25.6005 29.4702 25.6232L29.3375 25.7599C28.7039 26.4097 28.0363 27.0574 27.8103 27.4611C27.7953 27.4876 27.7817 27.5146 27.7694 27.5422C27.7374 27.6157 27.7239 27.6785 27.733 27.7293C27.736 27.746 27.7419 27.7621 27.7505 27.7766C27.7633 27.7986 27.7788 27.819 27.7966 27.8371C27.8049 27.8452 27.8135 27.8529 27.8228 27.8597C27.8692 27.8929 27.9255 27.9099 27.9825 27.9082H28.0003L28.0186 27.9069L28.0371 27.9047L28.0522 27.9025C28.0542 27.9024 28.0563 27.9019 28.0583 27.9015L28.0722 27.8988L28.076 27.8979L28.0913 27.8946L28.0967 27.8932L28.1131 27.889L28.1327 27.8832C28.1455 27.8793 28.1583 27.8749 28.1714 27.87C28.1997 27.86 28.2274 27.8485 28.2544 27.8355C28.2613 27.8322 28.2683 27.8291 28.275 27.8255L28.2958 27.8152C28.323 27.8015 28.35 27.7866 28.3772 27.7705C28.3989 27.7577 28.4205 27.7446 28.4421 27.7307L28.463 27.7168C28.4699 27.7124 28.4769 27.7079 28.4838 27.7027L28.5046 27.6888L28.5155 27.6811L28.5455 27.6602C28.5735 27.6408 28.5996 27.621 28.6261 27.6008L28.6285 27.5991L28.6703 27.5666C28.7277 27.5213 28.7822 27.4757 28.8314 27.4327L28.8642 27.4038L28.8674 27.401L28.8844 27.3858C28.9247 27.3497 28.9606 27.316 28.9906 27.288L29.0028 27.2761L29.0324 27.2482L29.05 27.231L29.0561 27.2247L29.0578 27.223C29.0728 27.208 29.0728 27.208 29.0878 27.1929L29.0891 27.1916L29.0947 27.1866C29.0964 27.1847 29.0988 27.1829 29.1014 27.1805L29.1036 27.1785L29.1096 27.1732L29.1413 27.1452L29.1591 27.1291C29.1678 27.1216 29.1774 27.113 29.1871 27.1038L29.2085 27.085C29.2122 27.0819 29.216 27.0783 29.2199 27.0749L29.2422 27.0554L29.2752 27.0266L29.2925 27.0115C29.3605 26.9522 29.4433 26.8808 29.5382 26.8004L29.5771 26.7675L29.6414 26.7136L29.7071 26.6586C29.793 26.5874 29.8855 26.5116 29.9833 26.4329L30.0475 26.3813C30.1022 26.3379 30.1585 26.2933 30.2153 26.2486C30.2381 26.2307 30.2614 26.2127 30.2852 26.1949C30.3435 26.1499 30.4021 26.105 30.4608 26.0608C30.5949 25.9596 30.7332 25.8582 30.873 25.7593L30.9331 25.7175C30.975 25.6885 31.0169 25.6596 31.0589 25.6313L31.0969 25.6055C31.1721 25.5549 31.2478 25.5054 31.3242 25.4569L31.3622 25.433L31.3999 25.4096C31.4375 25.3863 31.4752 25.3632 31.5124 25.3408L31.5497 25.3186L31.6246 25.275C31.6491 25.2608 31.6735 25.2469 31.6978 25.2332L31.7125 25.2249L31.7706 25.1932C31.7947 25.18 31.8189 25.1674 31.8428 25.1551L31.8788 25.1366L31.9135 25.119C31.9928 25.0791 32.0736 25.0422 32.1558 25.0085C32.1671 25.0038 32.1782 24.9993 32.1892 24.9944C32.2113 24.9852 32.2331 24.9768 32.2549 24.9693C32.2766 24.9619 32.298 24.9543 32.3191 24.9468C32.3383 24.9404 32.3569 24.9344 32.375 24.9288L32.3811 24.9269C32.3908 24.924 32.4005 24.9211 32.4102 24.9186L32.413 24.9179C32.4327 24.9122 32.4524 24.9071 32.4722 24.9024H32.4738C32.503 24.8954 32.5314 24.8894 32.5592 24.8847C32.5688 24.8832 32.5781 24.8816 32.5872 24.8804C32.6142 24.8763 32.6414 24.8735 32.6686 24.8716C32.6858 24.8704 32.7031 24.8699 32.7203 24.8699H32.7335C32.751 24.8699 32.7678 24.871 32.7846 24.8727C32.7922 24.8727 32.7999 24.8741 32.8074 24.8752H32.8105C32.818 24.876 32.8256 24.8772 32.833 24.8788C32.8403 24.8804 32.8478 24.8815 32.855 24.8832H32.8575C32.8647 24.8847 32.8714 24.8868 32.8789 24.8888C32.9386 24.9049 32.9935 24.9352 33.0389 24.9771L33.043 24.9811L33.051 24.989L33.0588 24.9972C33.1214 25.0632 33.1733 25.1386 33.2124 25.2208L33.2185 25.2347C33.2317 25.266 33.2422 25.2983 33.2496 25.3315C33.2699 25.4238 33.2644 25.52 33.2336 25.6094C33.2203 25.6483 33.2041 25.6861 33.1849 25.7224L33.1721 25.7455C33.1233 25.8272 33.0658 25.9033 33.0003 25.9724L32.9863 25.9872C32.9555 26.0199 32.9235 26.0516 32.8905 26.0821C32.88 26.0919 32.8692 26.1018 32.8583 26.1116L32.8417 26.1266C32.8074 26.1571 32.7722 26.1868 32.7366 26.2158C32.7303 26.2208 32.7239 26.2258 32.7178 26.2311C32.693 26.2511 32.6674 26.2715 32.6408 26.2918C32.5492 26.3618 32.456 26.4293 32.361 26.4944C32.305 26.5327 32.2472 26.5713 32.1875 26.6105C32.0763 26.6835 31.9642 26.7549 31.8511 26.8249C31.8185 26.845 31.7857 26.8655 31.7522 26.8858C31.4449 27.0749 31.1041 27.2771 30.7407 27.4969L30.6466 27.5541C30.5436 27.6169 30.4464 27.6769 30.355 27.734L30.3089 27.763L30.2217 27.819C30.1872 27.8408 30.1536 27.8624 30.121 27.8836C30.0963 27.8994 30.0722 27.9151 30.0486 27.9305L30.0021 27.9611C29.9794 27.976 29.9569 27.9908 29.9344 28.006L29.9125 28.0199C29.8894 28.0354 29.8669 28.0505 29.845 28.0655L29.8092 28.0899L29.7672 28.1191L29.7285 28.1461C29.6672 28.1891 29.6067 28.233 29.5467 28.2777L29.5258 28.2936C29.5022 28.3115 29.4794 28.3293 29.4574 28.3466L29.4286 28.3696C29.3802 28.4085 29.3363 28.4458 29.2966 28.4815L29.2772 28.4993C29.2661 28.5094 29.2552 28.5196 29.2449 28.5296C29.2375 28.5365 29.2308 28.5435 29.2235 28.5504L29.2133 28.5604C29.191 28.5827 29.1692 28.6057 29.1481 28.6293L29.1378 28.6411C29.1149 28.6677 29.0949 28.6932 29.0772 28.718L29.0694 28.7293C29.0491 28.759 29.0311 28.7904 29.0158 28.823L29.0105 28.8344L29.0072 28.8424L29.0046 28.8493L29.001 28.8588C28.9999 28.8621 28.9977 28.8679 28.9964 28.8729C28.99 28.8915 28.9853 28.9107 28.9822 28.9302L28.9806 28.9407L28.9794 28.9502L28.9786 28.9594V29.0085C28.9786 29.0126 28.9786 29.0168 28.9796 29.021C28.9797 29.0235 28.98 29.026 28.9803 29.0285C28.9803 29.0325 28.9814 29.0366 28.9819 29.0408L28.9849 29.058V29.0588C28.986 29.0643 28.9871 29.0697 28.9885 29.0752C28.9899 29.0807 28.9913 29.0868 28.993 29.0925C28.998 29.1102 29.0041 29.1277 29.0111 29.1447C29.0111 29.146 29.0122 29.1474 29.0127 29.1486C29.0146 29.1529 29.0163 29.1572 29.0183 29.1615C29.026 29.1793 29.0346 29.1966 29.0439 29.2136L29.0538 29.2313L29.0641 29.2491L29.0749 29.2669C29.0767 29.2699 29.0788 29.2726 29.0811 29.2752L29.0847 29.279L29.0885 29.2824L29.0927 29.2857C29.0955 29.2877 29.0985 29.2894 29.1016 29.2911C29.1047 29.2925 29.1081 29.2941 29.1116 29.2954C29.1153 29.2966 29.1191 29.2977 29.1228 29.2986C29.213 29.319 29.3983 29.2443 29.6444 29.1143L29.6886 29.0908L29.7635 29.05L29.8002 29.0297C29.8261 29.0157 29.8528 29 29.8799 28.9846L29.9294 28.9566C30.2549 28.7693 30.6438 28.5285 31.0456 28.2935C31.0831 28.2715 31.121 28.2496 31.1588 28.2277L31.2347 28.1793C31.2727 28.1574 31.3105 28.1358 31.3485 28.1146C31.51 28.0227 31.6738 27.9344 31.8392 27.8499L31.9135 27.8122C31.9628 27.7879 32.0117 27.7641 32.06 27.741C32.1536 27.6966 32.2481 27.6546 32.3436 27.6147L32.396 27.5935L32.4024 27.591C32.6796 27.4811 32.931 27.4132 33.1344 27.4132C33.1785 27.4129 33.2224 27.4165 33.2658 27.424H33.2671C33.2811 27.4265 33.2938 27.4293 33.3066 27.4326H33.3089C33.3277 27.4371 33.3461 27.4429 33.3639 27.4501C33.3781 27.4552 33.3919 27.4613 33.4052 27.4685C33.4635 27.498 33.5133 27.5416 33.5505 27.5954C33.5536 27.5999 33.5566 27.6046 33.5594 27.6094C33.5731 27.6304 33.585 27.6524 33.5947 27.6755C33.6005 27.6888 33.6058 27.7026 33.6108 27.7174C33.6158 27.7324 33.6202 27.7468 33.6247 27.7622C33.6578 27.8807 33.6546 28.006 33.6153 28.1226Z" fill="#FF9D00"/>
<path id="Vector_3" fill-rule="evenodd" clip-rule="evenodd" d="M31.772 19.6357V19.5591C31.772 13.0194 26.4723 7.71802 19.9321 7.71802C13.3923 7.71802 8.09059 13.0197 8.09059 19.5591L8.09043 19.5847C8.09028 19.6018 8.09012 19.6186 8.09043 19.6357C8.09118 19.6611 8.09145 19.6866 8.09121 19.7121L8.09215 19.7683L8.09246 19.7886L8.09325 19.8165C8.09356 19.8315 8.09403 19.8463 8.09403 19.8613L8.09559 19.9221L8.09809 19.9935L8.09887 20.0169L8.102 20.0908V20.0943L8.10637 20.1807V20.1829C8.10793 20.2124 8.1095 20.2419 8.11137 20.2713C8.11293 20.2986 8.11465 20.3258 8.11653 20.353L8.117 20.3579C8.11837 20.3811 8.11993 20.4046 8.12168 20.4279L8.12215 20.434C8.12372 20.4565 8.12543 20.4791 8.12731 20.5015L8.12762 20.5058L8.13075 20.5449C8.14011 20.6575 8.15104 20.7702 8.16356 20.8825L8.16434 20.8896L8.17371 20.9721L8.1845 21.059C8.19173 21.1168 8.19945 21.1744 8.20762 21.2321C8.2125 21.2669 8.21756 21.3016 8.22278 21.3363L8.22356 21.3405C8.23523 21.419 8.24782 21.4974 8.26137 21.5755C8.30023 21.8022 8.34587 22.0279 8.39825 22.2519L8.39903 22.2555L8.40403 22.2766C8.40872 22.2966 8.4134 22.3166 8.4184 22.3368L8.427 22.3263C8.77075 21.9154 9.26387 21.6888 9.81559 21.6888C10.2578 21.6888 10.7115 21.8349 11.1661 22.1232C11.4676 22.3147 11.8011 22.6541 12.1442 23.0808C12.4617 22.6397 12.9067 22.3468 13.4157 22.2668C13.5129 22.2515 13.611 22.2436 13.7092 22.2435C14.8712 22.2435 15.571 23.2519 15.8354 24.1588C15.9659 24.4654 16.5956 25.8608 17.5449 26.8049C18.9879 28.2466 19.349 29.7344 18.6349 31.3274H18.6373C18.686 31.3327 18.7349 31.3377 18.784 31.3422C18.8132 31.345 18.8424 31.3479 18.8717 31.3504L18.882 31.3513C18.9034 31.3533 18.9249 31.3552 18.9465 31.3568L19.0059 31.3616C19.0624 31.366 19.1192 31.3699 19.1762 31.3736L19.2212 31.3763L19.257 31.3783L19.2793 31.3796L19.349 31.3833L19.3681 31.3841L19.4415 31.3872L19.5229 31.3904L19.5885 31.3922L19.5995 31.3927C19.6132 31.3932 19.6273 31.3938 19.6412 31.3938L19.656 31.3941C19.7482 31.3963 19.8403 31.3974 19.9324 31.3974H20.0303L20.1003 31.3966C20.1174 31.3957 20.1345 31.3957 20.1517 31.3957H20.1789L20.2024 31.3952C20.2117 31.3949 20.221 31.3946 20.2303 31.3946H20.2582L20.3131 31.393L20.3956 31.3902L20.4865 31.3863C20.5126 31.3852 20.5385 31.384 20.5646 31.3825L20.5926 31.381L20.634 31.3786L20.6585 31.3772L20.6768 31.3761L20.7607 31.3705C20.7887 31.3688 20.8167 31.3666 20.8446 31.3644L20.9206 31.3585L20.9742 31.354L21.0328 31.3486C21.0929 31.343 21.1529 31.3371 21.2126 31.3308C21.2507 31.3266 21.2885 31.3224 21.3265 31.3179L21.3932 31.3099C20.6903 29.7235 21.0542 28.2424 22.4914 26.8063C23.4385 25.8599 24.0682 24.4641 24.1995 24.1577C24.464 23.2507 25.1632 22.2424 26.3256 22.2424C26.4239 22.2425 26.522 22.2502 26.619 22.2657C27.1276 22.3457 27.5728 22.6388 27.8907 23.0797C28.234 22.653 28.5673 22.3136 28.8689 22.1221C29.3234 21.8338 29.7775 21.6877 30.2192 21.6877C30.706 21.6877 31.1475 21.8643 31.4807 22.188C31.499 22.1065 31.5167 22.0249 31.5335 21.943C31.5439 21.8919 31.554 21.8407 31.564 21.7893C31.5762 21.7261 31.5878 21.6627 31.5984 21.5993C31.6012 21.5821 31.6042 21.5649 31.6074 21.5475C31.6126 21.5205 31.6171 21.4938 31.6214 21.4666L31.6231 21.4563L31.6342 21.3855L31.6451 21.3138L31.6453 21.313C31.6496 21.283 31.6542 21.2529 31.6582 21.2227C31.6615 21.1999 31.6646 21.1771 31.6676 21.1541L31.6695 21.141L31.6792 21.0663L31.6871 21.0027C31.692 20.9608 31.6967 20.919 31.7012 20.8769C31.7032 20.8602 31.705 20.8433 31.7067 20.8265L31.7082 20.8129C31.7112 20.7849 31.7139 20.7571 31.7164 20.7291L31.7226 20.6641C31.7356 20.52 31.746 20.376 31.7542 20.2316V20.2307L31.7584 20.1541L31.7592 20.1369L31.7623 20.0643C31.7635 20.0369 31.7646 20.0093 31.7656 19.9813V19.9793L31.7664 19.9591C31.7671 19.9419 31.7678 19.9247 31.7678 19.9077L31.7681 19.9007C31.7687 19.8847 31.7693 19.8682 31.7693 19.8518L31.7698 19.8377C31.7703 19.8213 31.7707 19.805 31.7707 19.7886L31.771 19.7747C31.7715 19.7538 31.772 19.733 31.772 19.7121V19.6357ZM16.9953 31.4649C17.9329 30.0896 17.8665 29.0574 16.5798 27.7715C15.2931 26.4855 14.5442 24.6049 14.5442 24.6049C14.5442 24.6049 14.2646 23.5124 13.6271 23.6129C12.9896 23.7132 12.522 25.3455 13.8567 26.3447C15.1914 27.344 13.5912 28.0215 13.0774 27.0838C12.5636 26.146 11.1611 23.7355 10.4337 23.2744C9.70653 22.8133 9.19512 23.0718 9.36653 24.0221C9.45168 24.4938 10.2436 25.2988 10.9834 26.051C11.734 26.8143 12.4311 27.5229 12.2822 27.7736C11.9864 28.2718 10.9447 27.1885 10.9447 27.1885C10.9447 27.1885 7.68278 24.2202 6.97262 24.9938C6.31809 25.7068 7.32746 26.3129 8.88309 27.2469C9.01543 27.3265 9.15168 27.4083 9.29121 27.4927C11.0709 28.5702 11.2093 28.8544 10.9568 29.2621C10.8636 29.4127 10.2678 29.055 9.53497 28.615C8.28575 27.865 6.6384 26.8761 6.4059 27.7613C6.2045 28.5274 7.41637 28.9968 8.51543 29.4225C9.43106 29.7772 10.2686 30.1016 10.1454 30.5419C10.0178 30.9983 9.32575 30.6177 8.56918 30.2015C7.71997 29.7341 6.7895 29.2221 6.48512 29.7999C5.9095 30.8921 10.4554 32.1779 10.4928 32.1872C11.9615 32.5682 15.6915 33.3754 16.9953 31.4649ZM23.0365 31.4649C22.0987 30.0896 22.1653 29.0574 23.452 27.7715C24.7387 26.4855 25.4878 24.6049 25.4878 24.6049C25.4878 24.6049 25.7671 23.5124 26.4046 23.6129C27.0421 23.7132 27.5099 25.3455 26.1751 26.3447C24.8403 27.344 26.4406 28.0215 26.9545 27.0838C27.4682 26.146 28.8701 23.7355 29.5973 23.2744C30.3245 22.8133 30.836 23.0718 30.6646 24.0221C30.5795 24.4938 29.7876 25.299 29.0476 26.0511C28.2971 26.8143 27.6001 27.5229 27.749 27.7736C28.0446 28.2718 29.0873 27.1879 29.0873 27.1879C29.0873 27.1879 32.349 24.2196 33.0592 24.9932C33.7137 25.7061 32.7042 26.3124 31.1485 27.2466C31.0162 27.326 30.8801 27.4077 30.7406 27.4922C28.9607 28.5696 28.8225 28.854 29.075 29.2615C29.1682 29.4121 29.764 29.0544 30.4967 28.6146C31.746 27.8646 33.3934 26.8755 33.6259 27.7607C33.8273 28.5268 32.6154 28.9963 31.5162 29.4221C30.6006 29.7768 29.7632 30.101 29.8862 30.5415C30.0139 30.9979 30.7056 30.6171 31.4618 30.2008C32.311 29.7335 33.2417 29.2213 33.5462 29.7993C34.1218 30.8922 29.5753 32.1766 29.5384 32.1861C28.0696 32.5682 24.3396 33.3754 23.0365 31.4649Z" fill="#FFD21E"/>
<path id="Vector_4" fill-rule="evenodd" clip-rule="evenodd" d="M23.7776 16.336C23.9621 16.4014 24.0994 16.6003 24.2301 16.7893C24.4066 17.0451 24.571 17.2829 24.8232 17.1489C25.1208 16.9907 25.3648 16.7479 25.5243 16.451C25.6838 16.1543 25.7516 15.8168 25.7193 15.4814C25.6952 15.2306 25.6158 14.9882 25.4868 14.7718C25.3577 14.5554 25.1823 14.3703 24.9732 14.2298C24.764 14.0894 24.5262 13.9971 24.2771 13.9596C24.0279 13.9221 23.7735 13.9404 23.5323 14.0131C23.2096 14.1103 22.923 14.3009 22.7087 14.5608C22.4944 14.8208 22.3619 15.1385 22.328 15.4737C22.2943 15.809 22.3607 16.1468 22.5188 16.4443C22.6357 16.6642 22.8951 16.5606 23.1688 16.451C23.3835 16.3653 23.6069 16.2759 23.7776 16.336ZM15.7501 16.3362C15.5655 16.4015 15.428 16.6004 15.2974 16.7895C15.1208 17.0451 14.9565 17.2831 14.7043 17.149C14.4819 17.0307 14.2887 16.8645 14.1382 16.6625C13.9877 16.4604 13.884 16.2276 13.8343 15.9806C13.7846 15.7337 13.7902 15.4788 13.8508 15.2343C13.9116 14.9898 14.0257 14.7618 14.1849 14.5667C14.3444 14.3717 14.5451 14.2144 14.7726 14.1062C15.0001 13.9981 15.2488 13.9417 15.5007 13.9411C15.7526 13.9406 16.0015 13.9959 16.2294 14.103C16.4574 14.2102 16.6588 14.3666 16.8191 14.5609C17.0335 14.8209 17.166 15.1386 17.1999 15.4739C17.2337 15.8092 17.1673 16.147 17.009 16.4445C16.8918 16.6643 16.6324 16.5606 16.3587 16.451C16.1441 16.3653 15.9207 16.2759 15.7501 16.3362ZM22.5357 23.6411C23.808 22.6386 24.2754 21.0021 24.2754 19.994C24.2754 19.1971 23.7391 19.4479 22.8808 19.8728L22.8326 19.8968C22.0446 20.287 20.9958 20.8064 19.8446 20.8064C18.6932 20.8064 17.6444 20.2868 16.8568 19.8967C15.9707 19.4578 15.4149 19.1825 15.4149 19.9942C15.4149 21.034 15.9121 22.7417 17.2769 23.7339C17.4569 23.3682 17.7104 23.0437 18.0216 22.7806C18.3327 22.5175 18.6949 22.3215 19.0854 22.2048C19.2216 22.1642 19.3619 22.3987 19.5057 22.6387C19.6443 22.8704 19.7858 23.1073 19.9301 23.1073C20.0835 23.1073 20.2344 22.8739 20.3818 22.6459C20.5357 22.4078 20.6857 22.1756 20.8308 22.222C21.5615 22.4565 22.1726 22.9651 22.5357 23.6411Z" fill="#32343D"/>
<path id="Vector_5" d="M22.5356 23.6413C21.873 24.1635 20.9922 24.5136 19.8453 24.5136C18.7677 24.5136 17.9247 24.2046 17.2773 23.7341C17.4575 23.3686 17.7111 23.0441 18.0222 22.7811C18.3333 22.518 18.6955 22.3219 19.0858 22.2051C19.3534 22.1252 19.6369 23.1076 19.9303 23.1076C20.2445 23.1076 20.5472 22.1315 20.8312 22.2222C21.5616 22.4569 22.1725 22.9655 22.5356 23.6413Z" fill="#FF323D"/>
<path id="Vector_6" fill-rule="evenodd" clip-rule="evenodd" d="M12.7078 17.7541C12.5869 17.8355 12.4511 17.8922 12.3082 17.921C12.1653 17.9497 12.0182 17.95 11.8752 17.9219C11.7322 17.8936 11.5962 17.8375 11.475 17.7568C11.3537 17.6758 11.2496 17.5719 11.1686 17.4507C11.0877 17.3296 11.0314 17.1935 11.0031 17.0507C10.9747 16.9077 10.9749 16.7605 11.0035 16.6175C11.0322 16.4747 11.0888 16.339 11.17 16.2179C11.2512 16.0969 11.3556 15.9931 11.477 15.9125C11.7212 15.7505 12.0197 15.6918 12.3071 15.7494C12.5945 15.807 12.8473 15.9762 13.0103 16.2199C13.1731 16.4636 13.2328 16.7619 13.176 17.0494C13.1193 17.3371 12.9509 17.5905 12.7078 17.7541ZM28.5534 17.7541C28.4324 17.8355 28.2967 17.8922 28.1538 17.921C28.011 17.9497 27.8638 17.95 27.7209 17.9219C27.5779 17.8936 27.4418 17.8375 27.3206 17.7568C27.1993 17.6758 27.0953 17.5719 27.0143 17.4507C26.9332 17.3296 26.877 17.1935 26.8487 17.0507C26.8204 16.9077 26.8206 16.7605 26.8492 16.6175C26.8778 16.4747 26.9343 16.339 27.0156 16.2179C27.0968 16.0969 27.2012 15.9931 27.3226 15.9125C27.5668 15.7505 27.8654 15.6918 28.1528 15.7494C28.4401 15.807 28.6929 15.9762 28.8559 16.2199C29.0187 16.4636 29.0784 16.7619 29.0217 17.0494C28.9649 17.3371 28.7965 17.5905 28.5534 17.7541Z" fill="#FFAD03"/>
</g>
</g>
</svg>
