<svg width="100" height="100" viewBox="0 0 100 100" fill="none" xmlns="http://www.w3.org/2000/svg">
<circle cx="50" cy="50" r="50" fill="white"/>
<g clip-path="url(#clip0_850_1296)">
<path d="M33.0313 34.5195C30.413 34.5195 28.2123 32.5542 27.9113 29.944L27.6593 27.7637C27.49 26.3001 27.9527 24.829 28.9308 23.7276C29.9051 22.6299 31.3083 22 32.7792 22H33.2833C34.7542 22 36.1574 22.6299 37.1317 23.7314C38.1098 24.8328 38.5725 26.3039 38.4032 27.7675L38.1512 29.9477C37.8502 32.5542 35.6458 34.5232 33.0275 34.5232L33.0313 34.5195ZM32.7792 24.2859C31.9478 24.2859 31.1842 24.6291 30.6312 25.2515C30.0782 25.8739 29.8261 26.6736 29.9202 27.5034L30.1722 29.6837C30.3415 31.1397 31.5679 32.2336 33.0275 32.2336C34.4871 32.2336 35.7172 31.1359 35.8865 29.6837L36.1386 27.5034C36.2326 26.6736 35.9843 25.8739 35.4313 25.2515C34.8783 24.6291 34.1147 24.2859 33.2833 24.2859H32.7792Z" fill="black"/>
<path d="M28.8139 55.3027H26.5342V77.9992H28.8139V55.3027Z" fill="black"/>
<path d="M39.5317 55.3027H37.252V64.1633H39.5317V55.3027Z" fill="black"/>
<path d="M27.6737 56.4468H25.2059C22.8773 56.4468 21.0039 53.6291 21.0039 51.298V43.3351C21.0039 40.1779 23.3438 37.413 26.6919 36.6096C28.1853 36.2512 30.3785 36.1079 33.1849 36.1909L38.4252 36.3606C43.3532 36.5266 48.0067 36.685 52.9046 36.685C53.5329 36.685 54.0445 37.198 54.0445 37.8279C54.0445 41.219 51.2946 44.033 47.9126 44.0971L40.0353 44.3461C39.7644 44.3611 39.5349 44.6026 39.5349 44.8968V55.3039H37.2552V44.8968C37.2552 43.3842 38.4327 42.1394 39.9412 42.0602L47.8562 41.8112C49.6205 41.7773 51.1102 40.5778 51.5955 38.9671C47.1377 38.9407 42.8567 38.8011 38.3499 38.6465L33.1209 38.4805C30.544 38.3975 28.5089 38.5258 27.2261 38.8351C24.905 39.3896 23.2874 41.2416 23.2874 43.3389V51.3017C23.2874 52.5616 24.367 54.1647 25.2097 54.1647H26.5376V45.6059H28.8173V55.3077C28.8173 55.9376 28.3057 56.4506 27.6775 56.4506L27.6737 56.4468Z" fill="black"/>
<path d="M47.7584 67.4336C45.2304 67.4336 43.1012 65.5325 42.8115 63.0128L42.5707 60.9268C42.409 59.5123 42.8529 58.0902 43.8009 57.0265C44.7451 55.9628 46.0994 55.3555 47.5214 55.3555H48.0029C49.4249 55.3555 50.7792 55.9665 51.7234 57.0303C52.6676 58.094 53.1153 59.516 52.9535 60.9268L52.7128 63.0128C52.4193 65.5325 50.2939 67.4336 47.7621 67.4336H47.7584ZM47.5176 57.6413C46.7351 57.6413 46.0204 57.962 45.5012 58.5504C44.9821 59.1351 44.7451 59.8857 44.8354 60.6628L45.0761 62.7487C45.2341 64.1142 46.389 65.1477 47.7584 65.1477C49.1277 65.1477 50.2826 64.118 50.4443 62.7487L50.6851 60.6628C50.7754 59.8819 50.5384 59.1351 50.0193 58.5504C49.5001 57.962 48.7816 57.6413 47.9991 57.6413H47.5176Z" fill="#1428A0"/>
<path d="M58.5996 77.9993H56.3199V75.6644C56.3199 73.42 54.4992 71.5906 52.2571 71.5906H43.2625C41.0204 71.5906 39.1996 73.42 39.1996 75.6644V77.9993H36.9199V75.6644C36.9199 72.1564 39.7639 69.3047 43.2625 69.3047H52.2571C55.7557 69.3047 58.5996 72.1564 58.5996 75.6644V77.9993Z" fill="#1428A0"/>
<path d="M67.1578 67.4336C64.6298 67.4336 62.5006 65.5325 62.2109 63.0128L61.9701 60.9268C61.8084 59.5123 62.2523 58.0902 63.2003 57.0265C64.1445 55.9628 65.4988 55.3555 66.9208 55.3555H67.4023C68.8243 55.3555 70.1786 55.9665 71.1228 57.0303C72.067 58.094 72.5147 59.516 72.3529 60.9268L72.1122 63.0128C71.8187 65.5325 69.6933 67.4336 67.1615 67.4336H67.1578ZM66.917 57.6413C66.1345 57.6413 65.4198 57.962 64.9006 58.5466C64.3815 59.1351 64.1445 59.8857 64.2348 60.6628L64.4756 62.7487C64.6336 64.1142 65.7885 65.1477 67.1578 65.1477C68.5271 65.1477 69.682 64.118 69.8438 62.7487L70.0845 60.6628C70.1748 59.8819 69.9378 59.1351 69.4187 58.5504C68.8995 57.962 68.181 57.6413 67.3985 57.6413H66.917Z" fill="#1428A0"/>
<path d="M78 77.9993H75.7203V75.6644C75.7203 73.42 73.8996 71.5906 71.6575 71.5906H62.6628C60.4208 71.5906 58.6 73.42 58.6 75.6644V77.9993H56.3203V75.6644C56.3203 72.1564 59.1643 69.3047 62.6628 69.3047H71.6575C75.156 69.3047 78 72.1564 78 75.6644V77.9993Z" fill="#1428A0"/>
<path d="M62.1216 48.9485C61.8695 48.9485 61.6175 48.8693 61.4143 48.7109C61.0269 48.4166 60.8651 47.881 61.0193 47.417L62.2645 41.5968L57.9007 37.9492C57.5471 37.655 57.4004 37.157 57.5321 36.7157C57.6788 36.2329 58.1415 35.8859 58.6456 35.8859L64.0702 35.2107L66.6922 29.8468C67.076 29.0622 68.4453 29.066 68.8252 29.8468L71.4247 35.2107L76.9772 35.8934C77.4174 35.9462 77.8086 36.2668 77.9478 36.6893C78.102 37.157 77.929 37.704 77.5302 37.9982L73.2266 41.593L74.5132 47.5302C74.6072 47.964 74.4342 48.4355 74.0843 48.7033C73.7006 49.0013 73.1401 49.0164 72.7338 48.7486L67.7531 45.6668L62.7385 48.7712C62.5542 48.8844 62.3435 48.941 62.1291 48.941L62.1216 48.9485ZM61.3353 37.8549L64.2508 40.2879C64.5743 40.5594 64.7248 40.9895 64.6345 41.4082L63.7655 45.4518L67.1474 43.3583C67.5161 43.132 67.9788 43.132 68.3437 43.3583L71.7256 45.4518L70.8454 41.4082C70.7551 40.9895 70.9056 40.5594 71.2291 40.2841L74.1483 37.8511L70.5294 37.4098C70.1457 37.3645 69.8108 37.1231 69.6416 36.7761L67.7493 32.872L65.8458 36.7723C65.6765 37.1193 65.3417 37.357 64.9618 37.406L61.3391 37.8511L61.3353 37.8549Z" fill="#1428A0"/>
</g>
<defs>
<clipPath id="clip0_850_1296">
<rect width="57" height="56" fill="white" transform="translate(21 22)"/>
</clipPath>
</defs>
</svg>
