<svg width="100" height="100" viewBox="0 0 100 100" fill="none" xmlns="http://www.w3.org/2000/svg">
<circle cx="50" cy="50" r="50" fill="white"/>
<g clip-path="url(#clip0_850_1248)">
<path d="M43.1665 72.4265L41.5268 70.9614C43.7575 68.3929 42.0782 65.3786 42.0601 65.3493C41.8115 64.9145 41.8836 64.3665 42.2331 64.0121L46.0567 60.1355C46.5035 59.6825 46.7486 59.0796 46.7486 58.4402C46.7486 57.8008 46.4999 57.1979 46.0567 56.7449L37.3897 65.3895L35.8438 63.8257L44.3701 55.1811C45.235 54.3042 46.7414 54.3042 47.599 55.1811C48.4603 56.0507 48.9324 57.2089 48.9324 58.4402C48.9324 59.6715 48.4603 60.8297 47.599 61.7029L44.3197 65.0315C45.0188 66.8108 45.3936 69.8653 43.1629 72.4338L43.1665 72.4265Z" fill="black"/>
<path d="M47.6399 77.1258H45.4561V75.6716C45.4561 74.3088 46.0759 72.9934 47.2039 71.9667C49.2472 70.1034 49.2868 66.8297 49.1246 65.043L51.3013 64.8457C51.4959 67.0416 51.413 71.1008 48.6634 73.6146C48.2778 73.9617 47.6399 74.6924 47.6399 75.6716V77.1258Z" fill="black"/>
<path d="M34.0501 77.1261H31.8662V60.2131C31.8662 59.1097 32.3131 58.0392 33.0879 57.2683L37.4916 52.8984L39.0196 54.4805L34.6158 58.8503C34.2591 59.2047 34.0537 59.7016 34.0537 60.2095V77.1224L34.0501 77.1261Z" fill="black"/>
<path d="M44.5474 32.5723C43.9456 32.5723 43.4482 32.0754 43.4482 31.4652V23.9824H45.6285V29.441L46.9907 28.5532C47.3475 28.3157 47.8087 28.3194 48.1727 28.5532L49.5349 29.441V23.9824H51.7151V31.4615C51.7151 31.7538 51.6034 32.0352 51.398 32.2434C51.0449 32.5978 50.4466 32.6636 50.025 32.3932L47.5817 30.8002L45.1384 32.3932C44.9618 32.5101 44.7564 32.5686 44.5474 32.5686V32.5723Z" fill="#1428A0"/>
<path d="M66.9415 66.0543H43.3949V63.8402H66.9415C67.2298 63.8402 67.4604 63.6027 67.4604 63.3104V30.9716L61.6585 25.0891H39.8704C39.5821 25.0891 39.3479 25.3266 39.3479 25.6189V62.7441H37.1641V25.6189C37.1641 24.1063 38.3785 22.875 39.8704 22.875H61.9323C62.3432 22.875 62.7252 23.0358 63.0171 23.3317L69.1253 29.5247C69.4569 29.8572 69.6515 30.3285 69.6515 30.8108V63.3141C69.6515 64.8267 68.437 66.058 66.9487 66.058L66.9415 66.0543Z" fill="black"/>
<path d="M64.3027 42.2617H42.5039V44.4759H64.3027V42.2617Z" fill="#1428A0"/>
<path d="M64.3027 48.3086H42.5039V50.5227H64.3027V48.3086Z" fill="#1428A0"/>
<path d="M64.3036 54.3555H53.5537V56.5696H64.3036V54.3555Z" fill="#1428A0"/>
<path d="M53.2538 36.2129H42.5039V38.427H53.2538V36.2129Z" fill="#1428A0"/>
</g>
<defs>
<clipPath id="clip0_850_1248">
<rect width="39" height="56" fill="white" transform="translate(31 22)"/>
</clipPath>
</defs>
</svg>
