<svg width="100" height="100" viewBox="0 0 100 100" fill="none" xmlns="http://www.w3.org/2000/svg">
<circle cx="50" cy="50" r="50" fill="white"/>
<g clip-path="url(#clip0_850_1287)">
<path d="M77.8359 78.0004C77.7364 78.0004 77.6369 77.9853 77.5373 77.9626L67.6499 75.3748C64.58 77.0962 61.1234 78.0004 57.6209 78.0004C47.5115 78.0004 39.0404 70.8311 37.4862 60.953C37.4288 60.5822 37.5552 60.2077 37.8308 59.9466C38.1025 59.6894 38.4853 59.5796 38.8605 59.6515C40.1964 59.9164 41.3141 60.0412 42.3744 60.0412C52.3461 60.0412 60.4573 52.0245 60.4573 42.1652C60.4573 41.3102 60.377 40.3909 60.2124 39.3581C60.1511 38.9873 60.2813 38.6128 60.553 38.3517C60.8248 38.0907 61.2076 37.9809 61.5827 38.0528C71.1103 39.9066 78.0273 48.226 78.0273 57.8318C78.0273 61.5924 76.9746 65.2432 74.9803 68.4249L78.8809 76.3509C79.08 76.7557 79.0225 77.2362 78.7355 77.5805C78.5096 77.8491 78.1804 78.0004 77.8397 78.0004H77.8359ZM40.1007 62.1825C42.0835 70.1085 49.211 75.7077 57.6209 75.7077C60.8669 75.7077 64.0709 74.8262 66.8843 73.1616C67.1523 73.0027 67.4738 72.9611 67.7762 73.0367L75.6808 75.1062L72.6032 68.8562C72.4233 68.493 72.4539 68.058 72.6797 67.7213C74.6549 64.7816 75.6999 61.3654 75.6999 57.8356C75.6999 49.8604 70.3256 42.8879 62.7081 40.686C62.7502 41.2005 62.7732 41.6886 62.7732 42.169C62.7732 53.2881 53.6208 62.3377 42.3706 62.3377C41.6433 62.3377 40.8969 62.2885 40.0969 62.1863L40.1007 62.1825Z" fill="#1428A0"/>
<path d="M22.1596 62.3335C21.819 62.3335 21.4859 62.1821 21.2639 61.9135C20.9768 61.5692 20.9194 61.0888 21.1185 60.684L25.0191 52.7618C23.0247 49.5763 21.9721 45.9292 21.9721 42.1686C21.9721 31.0458 31.1245 22 42.3747 22C53.6248 22 62.7772 31.0458 62.7772 42.1648C62.7772 53.2839 53.6248 62.3297 42.3747 62.3297C38.8722 62.3297 35.4156 61.4217 32.3456 59.7041L22.4544 62.2918C22.3549 62.3183 22.2553 62.3297 22.1558 62.3297L22.1596 62.3335ZM32.514 57.332C32.7208 57.332 32.9275 57.3849 33.1112 57.4947C35.9247 59.1593 39.1286 60.0408 42.3747 60.0408C52.3463 60.0408 60.4576 52.024 60.4576 42.1686C60.4576 32.3132 52.3463 24.2927 42.3747 24.2927C32.403 24.2927 24.2918 32.3094 24.2918 42.1648C24.2918 45.6946 25.3368 49.1109 27.312 52.0467C27.5378 52.3835 27.5684 52.8185 27.3885 53.1817L24.3109 59.4317L32.2193 57.3622C32.315 57.3358 32.4145 57.3244 32.5179 57.3244L32.514 57.332Z" fill="black"/>
</g>
<defs>
<clipPath id="clip0_850_1287">
<rect width="58" height="56" fill="white" transform="translate(21 22)"/>
</clipPath>
</defs>
</svg>
