<svg width="100" height="100" viewBox="0 0 100 100" fill="none" xmlns="http://www.w3.org/2000/svg">
<circle cx="50" cy="50" r="50" fill="white"/>
<g clip-path="url(#clip0_850_1207)">
<path d="M57.3934 67.7889H27.9126C25.134 67.7889 22.877 65.5193 22.877 62.7335V29.7583C22.877 26.9688 25.1377 24.6992 27.9126 24.6992H62.7353C65.5138 24.6992 67.7709 26.9688 67.7709 29.7546V55.2621H65.5612V29.7583C65.5612 28.1952 64.2923 26.9212 62.7353 26.9212H27.9126C26.3519 26.9212 25.0866 28.1952 25.0866 29.7583V62.7335C25.0866 64.2966 26.3556 65.5705 27.9126 65.5705H57.3934V67.7889Z" fill="black"/>
<path d="M66.6657 33.2988H23.9814V35.5172H66.6657V33.2988Z" fill="black"/>
<path d="M35.0036 22.875H32.7939V29.2263H35.0036V22.875Z" fill="black"/>
<path d="M57.8523 22.875H55.6426V29.2263H57.8523V22.875Z" fill="black"/>
<path d="M66.6741 77.156H66.6705C60.355 77.156 55.2136 71.9944 55.21 65.6541C55.21 59.3139 60.3513 54.1523 66.6668 54.1523C72.9823 54.1523 78.1237 59.3139 78.1237 65.6541C78.1237 68.7254 76.9313 71.6137 74.769 73.7881C72.6067 75.9626 69.7334 77.156 66.6741 77.156ZM66.6668 56.3744C61.5656 56.3744 57.4197 60.5402 57.4197 65.6578C57.4197 70.7791 61.5729 74.9412 66.6705 74.9412H66.6741C69.139 74.9412 71.4618 73.9785 73.2084 72.225C74.955 70.4716 75.9176 68.1397 75.9176 65.6615C75.9176 60.5402 71.7681 56.378 66.6705 56.378L66.6668 56.3744Z" fill="#1428A0"/>
<path d="M65.6237 69.3921C65.3283 69.3921 65.0512 69.2749 64.8433 69.0663L61.3574 65.563L62.9181 63.9962L65.6237 66.7161L70.4186 61.9023L71.9793 63.4691L66.404 69.0663C66.1961 69.2749 65.9154 69.3921 65.6237 69.3921Z" fill="#1428A0"/>
<path d="M34.3042 39.041H29.8848V41.2594H34.3042V39.041Z" fill="black"/>
<path d="M43.143 39.041H38.7236V41.2594H43.143V39.041Z" fill="black"/>
<path d="M51.9819 39.041H47.5625V41.2594H51.9819V39.041Z" fill="black"/>
<path d="M60.8217 39.041H56.4023V41.2594H60.8217V39.041Z" fill="black"/>
<path d="M34.3042 45.666H29.8848V47.8844H34.3042V45.666Z" fill="black"/>
<path d="M43.143 45.666H38.7236V47.8844H43.143V45.666Z" fill="black"/>
<path d="M51.9819 45.666H47.5625V47.8844H51.9819V45.666Z" fill="black"/>
<path d="M60.8217 45.666H56.4023V47.8844H60.8217V45.666Z" fill="black"/>
<path d="M34.3042 52.2891H29.8848V54.5074H34.3042V52.2891Z" fill="black"/>
<path d="M43.143 52.2891H38.7236V54.5074H43.143V52.2891Z" fill="black"/>
<path d="M51.9819 52.2891H47.5625V54.5074H51.9819V52.2891Z" fill="black"/>
<path d="M60.8217 52.2891H56.4023V54.5074H60.8217V52.2891Z" fill="black"/>
<path d="M34.3042 58.9141H29.8848V61.1324H34.3042V58.9141Z" fill="black"/>
<path d="M43.143 58.9141H38.7236V61.1324H43.143V58.9141Z" fill="black"/>
<path d="M51.9819 58.9141H47.5625V61.1324H51.9819V58.9141Z" fill="black"/>
</g>
<defs>
<clipPath id="clip0_850_1207">
<rect width="57" height="56" fill="white" transform="translate(22 22)"/>
</clipPath>
</defs>
</svg>
