<svg width="100" height="100" viewBox="0 0 100 100" fill="none" xmlns="http://www.w3.org/2000/svg">
<circle cx="50" cy="50" r="50" fill="white"/>
<path d="M40.3849 59.8341C37.7562 59.8341 35.7633 58.2287 33.9224 56.7486C33.2984 56.2474 32.6666 55.7345 31.9958 55.2803C27.4093 52.1557 23.5912 55.0962 23.4313 55.2255L21.9531 53.3734C23.7667 51.9129 28.4701 50.0138 33.3218 53.3147C34.0433 53.8041 34.7259 54.3562 35.4006 54.8965C38.271 57.2067 40.3459 58.8748 44.7217 55.6679C44.9401 55.5074 45.1624 55.3312 45.3965 55.1471C47.5922 53.4282 50.9073 50.8322 56.6326 54.0939L55.4664 56.1574C51.114 53.6788 48.848 55.4526 46.8512 57.0188C46.5977 57.2185 46.352 57.4064 46.118 57.5826C43.8871 59.2193 42.0151 59.838 40.3849 59.838V59.8341Z" fill="#1428A0"/>
<path d="M47.6669 77.1257H30.6938C28.2133 77.1257 25.9045 76.0645 24.364 74.2086C21.4662 70.7394 19.8711 66.3265 19.8711 61.7884C19.8711 53.5461 24.9529 46.3258 32.6009 43.5575V30.0371H34.9644V44.4111C34.9644 44.9319 34.629 45.39 34.1337 45.5427C27.016 47.7668 22.2345 54.294 22.2345 61.7884C22.2345 65.7666 23.6347 69.6391 26.1775 72.6854C27.2695 73.9971 28.9154 74.7489 30.6977 74.7489H47.6708C49.4492 74.7489 51.0951 73.9971 52.191 72.6854C54.7338 69.6391 56.134 65.7666 56.134 61.7884C56.134 54.2979 51.3525 47.7668 44.2348 45.5427C43.7395 45.3861 43.4041 44.928 43.4041 44.4111V30.0371H45.7676V43.5575C53.4195 46.3298 58.4974 53.5461 58.4974 61.7884C58.4974 66.3226 56.9023 70.7355 54.0045 74.2125C52.4601 76.0645 50.1551 77.1257 47.6747 77.1257H47.6669Z" fill="black"/>
<path d="M68.7113 58.0527H62.6123V60.4256H68.7113V58.0527Z" fill="#1428A0"/>
<path d="M68.7113 39.1523H62.6123V41.5252H68.7113V39.1523Z" fill="#1428A0"/>
<path d="M68.7113 45.4531H62.6123V47.826H68.7113V45.4531Z" fill="#1428A0"/>
<path d="M68.7113 51.752H62.6123V54.1248H68.7113V51.752Z" fill="#1428A0"/>
<path d="M68.7113 64.3516H62.6123V66.7244H68.7113V64.3516Z" fill="#1428A0"/>
<path d="M68.7121 77.1257C64.6989 77.1257 61.4307 73.8484 61.4307 69.8154V35.3036C61.4307 34.6497 61.9611 34.1172 62.6124 34.1172H74.8079C75.4592 34.1172 75.9896 34.6497 75.9896 35.3036V69.8193C75.9896 73.8484 72.7253 77.1296 68.7082 77.1296L68.7121 77.1257ZM63.7941 36.49V69.8193C63.7941 72.5406 66.0016 74.7568 68.7121 74.7568C71.4226 74.7568 73.6301 72.5406 73.6301 69.8193V36.49H63.798H63.7941Z" fill="black"/>
<path d="M74.8081 36.4905H62.6126C60.3232 36.4905 58.459 34.6189 58.459 32.3205C58.459 30.022 60.3232 28.1504 62.6126 28.1504H74.8081C77.0974 28.1504 78.9617 30.022 78.9617 32.3205C78.9617 34.6189 77.0974 36.4905 74.8081 36.4905ZM62.6126 30.5232C61.6258 30.5232 60.8224 31.3298 60.8224 32.3205C60.8224 33.3111 61.6258 34.1177 62.6126 34.1177H74.8081C75.7948 34.1177 76.5982 33.3111 76.5982 32.3205C76.5982 31.3298 75.7948 30.5232 74.8081 30.5232H62.6126Z" fill="#1428A0"/>
<path d="M39.18 34.1133H34.2432V36.4861H39.18V34.1133Z" fill="black"/>
<path d="M39.18 39.3867H34.2432V41.7596H39.18V39.3867Z" fill="black"/>
<path d="M45.2807 31.2151H33.0813C30.792 31.2151 28.9277 29.3435 28.9277 27.0451C28.9277 24.7466 30.792 22.875 33.0813 22.875H45.2807C47.5701 22.875 49.4343 24.7466 49.4343 27.0451C49.4343 29.3435 47.5701 31.2151 45.2807 31.2151ZM33.0813 25.2478C32.0946 25.2478 31.2912 26.0544 31.2912 27.0451C31.2912 28.0357 32.0946 28.8423 33.0813 28.8423H45.2807C46.2675 28.8423 47.0709 28.0357 47.0709 27.0451C47.0709 26.0544 46.2675 25.2478 45.2807 25.2478H33.0813Z" fill="#1428A0"/>
</svg>
