<svg width="100" height="100" viewBox="0 0 100 100" fill="none" xmlns="http://www.w3.org/2000/svg">
<circle cx="50" cy="50" r="50" fill="white"/>
<g clip-path="url(#clip0_850_1265)">
<path d="M41.2894 37.4609H35.8008V39.7006H41.2894V37.4609Z" fill="#1428A0"/>
<path d="M68.2467 49.2689C67.6328 49.2689 67.1328 48.7663 67.1328 48.1491V34.7995C67.1328 34.1823 67.6328 33.6797 68.2467 33.6797C72.5222 33.6797 75.9999 37.176 75.9999 41.4743C75.9999 45.7726 72.5222 49.2689 68.2467 49.2689ZM69.3643 36.034V46.9146C71.8788 46.3935 73.7757 44.1538 73.7757 41.4743C73.7757 38.7948 71.8788 36.5551 69.3643 36.034Z" fill="#1428A0"/>
<path d="M44.9981 60.567C44.1893 58.671 43.546 56.6827 43.0754 54.661L42.1527 50.6362H37.0759L39.0941 59.8833L36.9178 60.3638L34.6018 49.7566C34.5282 49.4239 34.6091 49.0802 34.8223 48.8141C35.0319 48.5517 35.3517 48.3965 35.6899 48.3965H43.0387C43.557 48.3965 44.0055 48.755 44.1232 49.265L45.2444 54.1584C45.6782 56.0507 46.2885 57.9097 47.0421 59.6837L44.9908 60.567H44.9981Z" fill="#1428A0"/>
<path d="M41.2894 43.248H35.8008V45.4878H41.2894V43.248Z" fill="#1428A0"/>
<path d="M63.6331 24.2949H61.4053V58.6518H63.6331V24.2949Z" fill="black"/>
<path d="M65.3645 60.9511H64.8388C63.6256 60.9511 62.4639 60.3708 61.6515 59.3582C57.2878 53.8994 50.1412 50.6396 45.7555 50.6396C45.1379 50.6396 44.6416 50.137 44.6416 49.5197V33.4353C44.6416 32.8181 45.1416 32.3154 45.7555 32.3154C50.1412 32.3154 57.2878 29.0556 61.6515 23.5968C62.4639 22.5842 63.6256 22.0039 64.8388 22.0039H65.3645C67.5702 22.0039 69.3642 23.8075 69.3642 26.025V56.9337C69.3642 59.1512 67.5702 60.9548 65.3645 60.9548V60.9511ZM46.8657 48.4479C51.7294 48.9025 58.7877 52.1993 63.383 57.95C63.769 58.4342 64.2984 58.7077 64.8351 58.7077H65.3608C66.3387 58.7077 67.1327 57.9094 67.1327 56.9263V26.0213C67.1327 25.0419 66.3387 24.2436 65.3608 24.2436H64.8351C64.2984 24.2436 63.769 24.5208 63.383 25.0013C58.784 30.7521 51.7294 34.0488 46.8657 34.5034V48.4516V48.4479Z" fill="black"/>
<path d="M45.752 50.6349H35.0027C32.3669 50.6349 30.2236 48.4802 30.2236 45.8303V37.1191C30.2236 34.4692 32.3705 32.3145 35.0027 32.3145H45.752C46.3659 32.3145 46.8659 32.8171 46.8659 33.4343V35.7886H44.6381V34.5542H35.0027C33.5947 34.5542 32.4514 35.7036 32.4514 37.1191V45.8303C32.4514 47.2458 33.5947 48.3952 35.0027 48.3952H44.6381V47.1608H46.8659V49.5151C46.8659 50.136 46.3659 50.6349 45.752 50.6349Z" fill="black"/>
<path d="M28.165 61.2419H26.5732V59.0022H28.165C28.8599 59.0022 29.5289 58.7103 30.0032 58.2002L32.6022 55.4061C33.4992 54.4452 34.7602 53.8945 36.0689 53.8945V56.1342C35.3741 56.1342 34.705 56.4262 34.2271 56.9362L31.628 59.7303C30.7347 60.6913 29.4701 61.2419 28.1614 61.2419H28.165Z" fill="black"/>
<path d="M46.3734 77.999H35.6645C34.5176 77.999 33.3853 77.6885 32.3964 77.1046C30.6502 75.9958 28.6687 75.423 26.6321 75.423L26.5732 73.1833H26.6321C29.0878 73.1833 31.481 73.8781 33.5544 75.1938C34.1757 75.5597 34.9146 75.763 35.6645 75.763H46.3734C47.8622 75.763 49.1048 74.6394 49.2592 73.15L50.1709 64.4721C50.2591 63.6368 49.9981 62.8385 49.443 62.2139C48.8842 61.5893 48.1196 61.2456 47.2814 61.2456H35.3925V59.0059H47.2814C48.7335 59.0059 50.1268 59.6268 51.0973 60.7134C52.0678 61.7999 52.5384 63.2524 52.384 64.7049L51.4723 73.3828C51.1966 76.0143 49.0019 77.999 46.3697 77.999H46.3734Z" fill="black"/>
<path d="M51.2816 64.75H45.918V66.9897H51.2816V64.75Z" fill="black"/>
<path d="M50.4429 70.6484H45.083V72.8881H50.4429V70.6484Z" fill="black"/>
<path d="M26.5732 76.7986H22V74.5589H25.4593V59.2358H22V56.9961H26.5732C27.1871 56.9961 27.6871 57.4987 27.6871 58.1159V75.6788C27.6871 76.296 27.1871 76.7986 26.5732 76.7986Z" fill="black"/>
</g>
<defs>
<clipPath id="clip0_850_1265">
<rect width="54" height="56" fill="white" transform="translate(22 22)"/>
</clipPath>
</defs>
</svg>
