<svg width="120" height="120" viewBox="0 0 120 120" fill="none" xmlns="http://www.w3.org/2000/svg">
<circle cx="60" cy="60" r="60" fill="white"/>
<g clip-path="url(#clip0_455_838)">
<path d="M70.4625 74C67.327 70.4057 68.0061 66.1043 69.0212 63.7567L65.5498 60.2573C62.8369 57.516 62.8369 53.0615 65.5498 50.3202C66.6335 49.2303 68.3999 49.223 69.4836 50.3202L80.2121 62.5392L78.5721 64.001L67.8905 51.833C67.7063 51.6471 67.3306 51.6471 67.0958 51.8804C65.2355 53.7577 65.2355 56.8161 67.0958 58.6934L71.1236 62.7543C71.4703 63.1042 71.5426 63.6547 71.3006 64.0848C71.1958 64.2707 68.7575 68.6961 72.1061 72.5346L70.4625 73.9927V74Z" fill="black"/>
<path d="M88.1212 87.125H85.8751V83.1616C85.8751 82.6596 85.4452 82.2524 84.9152 82.2524H64.9636C64.4336 82.2524 64.0036 82.6596 64.0036 83.1616V87.125H61.7576V83.1616C61.7576 81.4871 63.1957 80.125 64.9636 80.125H84.9152C86.6831 80.125 88.1212 81.4871 88.1212 83.1616V87.125Z" fill="black"/>
<path d="M66.1515 81H64.0266V76.6906C60.089 72.5417 59.1808 67.7474 59.1212 64.4151L61.2461 64.375C61.2987 67.3792 62.1367 71.7359 65.8254 75.4328C66.0323 75.6406 66.1515 75.9286 66.1515 76.2276V81Z" fill="black"/>
<path d="M86.3636 81H84.1036V59.3615C84.1036 58.5334 83.753 57.7269 83.1377 57.1473L76.697 51.059L78.2782 49.5L84.719 55.5883C85.7632 56.5748 86.3636 57.9502 86.3636 59.3615V81Z" fill="black"/>
<path d="M69.1641 66.125H33.0111C32.387 66.125 31.8788 65.6239 31.8788 65.0086V33.9914C31.8788 33.3761 32.387 32.875 33.0111 32.875H77.3222C77.9463 32.875 78.4545 33.3761 78.4545 33.9914V60.8449H76.1898V35.1079H34.1435V63.8921H69.1641V66.125Z" fill="black"/>
<path d="M64.394 39.875H38.9091V42.0625H64.394V39.875Z" fill="#1428A0"/>
<path d="M56.4849 46.875H38.9091V49.0625H56.4849V46.875Z" fill="#1428A0"/>
<path d="M56.4849 54.75H38.9091V56.9375H56.4849V54.75Z" fill="#1428A0"/>
</g>
<defs>
<clipPath id="clip0_455_838">
<rect width="58" height="56" fill="white" transform="translate(31 32)"/>
</clipPath>
</defs>
</svg>
