<svg width="120" height="120" viewBox="0 0 120 120" fill="none" xmlns="http://www.w3.org/2000/svg">
<circle cx="60" cy="60" r="60" fill="white"/>
<g clip-path="url(#clip0_455_904)">
<path d="M59.6054 80.6467C57.1758 80.6467 54.9202 79.2318 53.8651 77.0449L52.9475 75.1449C51.9934 73.1682 51.4275 71.0499 51.2658 68.8589C51.2335 68.4344 51.2173 68.01 51.2173 67.5855V64.2505C51.2173 63.0378 51.5488 61.8816 52.1713 60.9115C53.2385 59.2419 55.3972 57.249 59.6134 57.2207H59.6903C64.4805 57.2207 66.5462 59.82 67.3547 61.3723C67.7792 62.1889 67.9934 63.1146 67.9934 64.1252V67.5815C67.9934 68.0059 67.9773 68.4304 67.9449 68.8549C67.7832 71.0499 67.2173 73.1641 66.2633 75.1409L65.3456 77.0368C64.2865 79.2278 62.0349 80.6426 59.6054 80.6426V80.6467ZM59.6943 59.6704H59.6296C56.5129 59.6906 54.9768 61.0732 54.2329 62.2333C53.861 62.8114 53.667 63.5067 53.667 64.2505V67.5855C53.667 67.9534 53.6791 68.3172 53.7074 68.681C53.8449 70.5608 54.33 72.3758 55.1506 74.0777L56.0682 75.9777C56.7191 77.3278 58.1097 78.197 59.6013 78.197C61.093 78.197 62.4836 77.3278 63.1385 75.9777L64.0561 74.0817C64.8767 72.3839 65.3618 70.5689 65.5033 68.681C65.5316 68.3172 65.5437 67.9534 65.5437 67.5896V64.1333C65.5437 63.5188 65.4224 62.9691 65.1799 62.5082C64.5088 61.2146 63.0091 59.6745 59.6943 59.6745V59.6704Z" fill="black"/>
<path d="M77.4891 87.9434C76.8828 86.185 74.1541 84.5922 72.0035 83.7676C70.6251 83.238 69.4123 82.8135 68.3896 82.4821C65.6286 81.5846 63.5791 79.3734 63.0455 76.7095L65.4467 76.2244C65.8065 78.0233 67.2254 79.527 69.1455 80.1496C70.2046 80.4932 71.4659 80.9298 72.8848 81.4795C74.6069 82.1425 78.7302 84.0222 79.8055 87.1471L77.4891 87.9475V87.9434Z" fill="black"/>
<path d="M41.7458 88.0001L39.4093 87.2644C40.4159 84.0708 44.6119 82.1588 46.3704 81.4796C47.8661 80.9016 49.1799 80.4569 50.2673 80.1133C52.1349 79.5312 53.5094 78.1446 53.95 76.4104L56.3269 77.0127C55.6761 79.5797 53.6832 81.613 50.999 82.4539C49.948 82.7813 48.6908 83.2098 47.2516 83.7677C45.0606 84.6085 42.3077 86.2214 41.7458 88.0001Z" fill="black"/>
<path d="M87.858 81.5968C87.2436 79.6766 84.6119 77.9869 82.3482 77.049C80.9737 76.4791 79.761 76.0223 78.7342 75.6625C75.9813 74.7004 73.9439 72.3436 73.4144 69.5058L75.8237 69.0571C76.1915 71.0339 77.6145 72.6751 79.5427 73.3502C80.6059 73.7221 81.8631 74.1951 83.286 74.7853C85.0081 75.5008 89.1273 77.5261 90.1905 80.8489L87.858 81.5968Z" fill="black"/>
<path d="M31.3931 81.5968L29.0566 80.8489C30.1157 77.522 34.235 75.5008 35.957 74.7853C37.38 74.1951 38.6372 73.7262 39.7003 73.3502C41.6286 72.6751 43.0556 71.0298 43.4234 69.0571L45.8327 69.5058C45.3032 72.3396 43.2658 74.7004 40.5088 75.6625C39.4861 76.0223 38.2734 76.4791 36.8949 77.049C34.6352 77.9909 32.0035 79.6766 31.3891 81.5968H31.3931Z" fill="black"/>
<path d="M69.9823 73.4633C68.333 73.4633 66.7524 72.8044 65.5356 71.6078C65.2405 71.3168 65.1112 70.9004 65.192 70.4962L65.2648 70.1283C65.3659 69.6473 65.4669 69.1703 65.5033 68.6771C65.5316 68.3133 65.5437 67.9494 65.5437 67.5856V64.1293C65.5437 63.5149 65.4224 62.9651 65.1799 62.5043C65.0748 62.3021 64.9293 62.0798 64.7635 61.8575C64.6301 61.6756 64.4967 61.526 64.3512 61.3724C64.1774 61.1945 64.0116 61.0449 63.8257 60.9034C63.4578 60.6164 63.0253 60.3739 62.5361 60.1798C61.5902 60.0303 61.5902 59.0884 61.5902 58.0091V57.0672C61.5902 55.8585 61.9217 54.7023 62.5442 53.7281C63.6155 52.0586 65.7741 50.0616 69.9864 50.0374H70.0632C74.8535 50.0374 76.9192 52.6366 77.7277 54.1889C78.1521 55.0055 78.3664 55.9312 78.3664 56.9419V60.3981C78.3664 60.8226 78.3502 61.2471 78.3179 61.6715C78.1562 63.8666 77.5902 65.9808 76.6362 67.9575L75.7186 69.8534C74.6594 72.0444 72.4078 73.4593 69.9783 73.4593L69.9823 73.4633ZM67.7388 70.2738C69.6468 71.6523 72.5169 70.864 73.5195 68.7943L74.4371 66.8984C75.2577 65.2006 75.7428 63.3855 75.8843 61.4977C75.9126 61.1339 75.9247 60.77 75.9247 60.4062V56.9499C75.9247 56.3355 75.8034 55.7857 75.5609 55.3249C74.8899 54.0313 73.3901 52.4911 70.0713 52.4911H70.0066C66.8899 52.5113 65.3537 53.8938 64.6099 55.054C64.2421 55.6321 64.044 56.3274 64.044 57.0712V58.1708C64.5129 58.4012 64.9454 58.668 65.3335 58.9712C65.6084 59.1814 65.859 59.4077 66.0854 59.6382C66.3482 59.909 66.5422 60.1394 66.716 60.3739C66.9869 60.7418 67.2011 61.0732 67.3588 61.3805C67.7832 62.197 67.9975 63.1228 67.9975 64.1334V67.5897C67.9975 68.0141 67.9813 68.4386 67.949 68.863C67.9126 69.34 67.8317 69.809 67.7388 70.2779V70.2738Z" fill="black"/>
<path d="M49.2648 73.4633C46.8353 73.4633 44.5796 72.0484 43.5245 69.8615L42.6069 67.9615C41.6529 65.9848 41.0869 63.8706 40.9252 61.6796C40.8929 61.2551 40.8767 60.8266 40.8767 60.4062V56.9499C40.8767 55.9393 41.091 55.0136 41.5154 54.197C42.3239 52.6407 44.3936 50.0454 49.1799 50.0454H49.2567C53.473 50.0737 55.6316 52.0666 56.7029 53.7362C57.3254 54.7064 57.6569 55.8625 57.6569 57.0752V58.9833C57.6569 59.4886 57.3456 59.9413 56.8727 60.1232L56.1814 59.1005L56.6422 60.2405C56.0925 60.4951 55.7327 60.7053 55.4336 60.9398C54.9161 61.3481 54.5402 61.7604 54.2653 62.197L54.0672 62.5083C54.0025 62.6376 53.9702 62.771 53.9298 62.9004L53.8166 63.2319C53.7883 63.3289 53.7842 63.4299 53.7721 63.527L53.7074 63.9878C53.6913 64.0767 53.671 64.1657 53.671 64.2587V67.5937C53.671 67.9615 53.6832 68.3254 53.7115 68.6892C53.7479 69.1904 53.853 69.6836 53.9581 70.1768L54.0268 70.5244C54.1076 70.9327 53.9783 71.3572 53.6791 71.6482C52.4664 72.8246 50.8979 73.4714 49.2688 73.4714L49.2648 73.4633ZM49.1799 52.487C45.861 52.487 44.3653 54.0272 43.6903 55.3208C43.4517 55.7816 43.3264 56.3314 43.3264 56.9459V60.4022C43.3264 60.77 43.3386 61.1338 43.3669 61.4977C43.5043 63.3774 43.9934 65.1925 44.8141 66.8943L45.7317 68.7943C46.7261 70.8519 49.5599 71.6563 51.48 70.29C51.3871 69.817 51.3022 69.344 51.2698 68.859C51.2375 68.4345 51.2213 68.01 51.2213 67.5856V64.2506C51.2213 64.008 51.2577 63.7776 51.2981 63.5431L52.5553 63.3976L51.3345 63.2804C51.3547 63.0661 51.379 62.8519 51.4275 62.6457C51.4437 62.5891 51.5124 62.3789 51.5326 62.3264C51.662 61.91 51.7509 61.6351 51.8883 61.3723C51.9368 61.2753 52.0096 61.1581 52.0864 61.0409C52.0864 61.0368 52.24 60.8064 52.2441 60.8024C52.6038 60.2162 53.1657 59.5937 53.857 59.0479C54.2936 58.7124 54.7261 58.4416 55.1991 58.2071V57.0671C55.1991 56.3274 55.0051 55.628 54.6332 55.054C53.8893 53.8938 52.3492 52.5073 49.2324 52.4911H49.1718L49.1799 52.487Z" fill="black"/>
<path d="M41.4426 49.1764C41.1718 49.1764 40.8646 49.0834 40.6503 48.9217L34.7564 44.3658H30.2249C29.5498 44.3658 29 43.8161 29 43.141V33.2249C29 32.5498 29.5498 32 30.2249 32H45.0081C45.6832 32 46.2329 32.5498 46.2329 33.2249V43.1369C46.2329 43.812 45.6832 44.3618 45.0081 44.3618H42.6635V47.9515C42.6635 48.6266 42.1137 49.1764 41.4386 49.1764H41.4426ZM31.4497 41.9121H35.1728C35.4437 41.9121 35.7064 42.001 35.9207 42.1668L40.2137 45.4856V43.1329C40.2137 42.4578 40.7635 41.908 41.4386 41.908H43.7832V34.4497H31.4497V41.9121Z" fill="#1428A0"/>
<path d="M77.2547 49.7706C76.5796 49.7706 76.0015 49.2208 76.0015 48.5457V44.7458H73.471C72.7959 44.7458 72.2461 44.1961 72.2461 43.521V33.2249C72.2461 32.5498 72.7959 32 73.471 32H89.0182C89.6933 32 90.2431 32.5498 90.2431 33.2249V43.521C90.2431 44.1961 89.6933 44.7458 89.0182 44.7458H83.9611L78.0187 49.5038C77.8004 49.6776 77.5336 49.7706 77.2547 49.7706ZM74.6999 42.2961H77.2304C77.9055 42.2961 78.4553 42.8459 78.4553 43.521V46.0192L82.7726 42.5629C82.9909 42.3891 83.2577 42.2961 83.5366 42.2961H87.7974V34.4497H74.6999V42.2961Z" fill="#1428A0"/>
<path d="M59.3386 49.9768C58.9222 49.9768 58.4775 49.7665 58.2511 49.4189L55.1425 44.6003H50.7847C50.1096 44.6003 49.5599 44.0505 49.5599 43.3754V33.2249C49.5599 32.5498 50.1096 32 50.7847 32H68.426C69.1011 32 69.6508 32.5498 69.6508 33.2249V43.3714C69.6508 44.0465 69.1011 44.5963 68.426 44.5963H64.0116L60.3168 49.4876C60.0864 49.7948 59.7226 49.9727 59.3386 49.9727V49.9768ZM52.0096 42.1465H55.8095C56.2259 42.1465 56.6139 42.3567 56.8403 42.7084L59.383 46.6579L62.4229 42.6357C62.6534 42.3284 63.0172 42.1506 63.4012 42.1506H67.2011V34.4497H52.0096V42.1465Z" fill="#1428A0"/>
</g>
<defs>
<clipPath id="clip0_455_904">
<rect width="61.2511" height="56" fill="white" transform="translate(29 32)"/>
</clipPath>
</defs>
</svg>
