<svg width="120" height="120" viewBox="0 0 120 120" fill="none" xmlns="http://www.w3.org/2000/svg">
<circle cx="60" cy="60" r="60" fill="white"/>
<g clip-path="url(#clip0_455_921)">
<path d="M67.7369 65.0908C66.9408 65.0908 66.2895 65.6635 66.2895 66.3635V80.3635C66.2895 83.1763 63.6987 85.4545 60.5 85.4545C57.3013 85.4545 54.7105 83.1763 54.7105 80.3635V73.9999C54.7105 71.1872 52.1197 68.909 48.9211 68.909C48.125 68.909 47.4737 69.4817 47.4737 70.1817C47.4737 70.8817 48.125 71.4545 48.9211 71.4545C50.5132 71.4545 51.8158 72.5999 51.8158 73.9999V80.3635C51.8158 84.5763 55.7092 87.9999 60.5 87.9999C65.2908 87.9999 69.1842 84.5763 69.1842 80.3635V66.3635C69.1842 65.6635 68.5329 65.0908 67.7369 65.0908Z" fill="#231F20"/>
<path d="M67.7369 67.6365C62.179 67.6365 56.8671 64.671 52.7855 59.2747C49.6158 55.0874 47.4737 49.7547 47.4737 46.0001C47.4737 38.8474 53.8855 36.0347 56.954 34.6856C57.6776 34.3674 58.5316 34.6219 58.8934 35.2583C59.2553 35.8819 58.9658 36.6456 58.2421 36.9637C55.4921 38.1728 50.354 40.4256 50.354 46.0128C50.354 51.6001 57.0987 65.1037 67.7224 65.1037C78.3461 65.1037 85.0908 51.6765 85.0908 46.0128C85.0908 40.3492 79.9671 38.1856 77.2026 36.9637C76.4934 36.6456 76.1895 35.8819 76.5513 35.2583C76.9132 34.6347 77.7816 34.3801 78.4908 34.6856C81.5737 36.0347 87.9711 38.8601 87.9711 46.0001C87.9711 53.1401 80.0829 67.6365 67.7079 67.6365H67.7369Z" fill="#231F20"/>
<path d="M41.6842 76.5454C36.8934 76.5454 33 73.1218 33 68.9091C33 64.6963 36.8934 61.2727 41.6842 61.2727C46.475 61.2727 50.3684 64.6963 50.3684 68.9091C50.3684 73.1218 46.475 76.5454 41.6842 76.5454ZM41.6842 63.8182C38.4855 63.8182 35.8947 66.0963 35.8947 68.9091C35.8947 71.7218 38.4855 74 41.6842 74C44.8829 74 47.4737 71.7218 47.4737 68.9091C47.4737 66.0963 44.8829 63.8182 41.6842 63.8182Z" fill="#1428A0"/>
<path d="M41.6842 71.4544C40.0921 71.4544 38.7894 70.309 38.7894 68.909C38.7894 67.509 40.0921 66.3635 41.6842 66.3635C43.2763 66.3635 44.5789 67.509 44.5789 68.909C44.5789 70.309 43.2763 71.4544 41.6842 71.4544Z" fill="#1428A0"/>
<path d="M60.5 39.6364C58.1118 39.6364 56.1579 37.9182 56.1579 35.8182C56.1579 33.7182 58.1118 32 60.5 32C62.8882 32 64.8421 33.7182 64.8421 35.8182C64.8421 37.9182 62.8882 39.6364 60.5 39.6364ZM60.5 34.5455C59.704 34.5455 59.0526 35.1182 59.0526 35.8182C59.0526 36.5182 59.704 37.0909 60.5 37.0909C61.2961 37.0909 61.9474 36.5182 61.9474 35.8182C61.9474 35.1182 61.2961 34.5455 60.5 34.5455Z" fill="#1428A0"/>
<path d="M74.9736 39.6364C72.5855 39.6364 70.6315 37.9182 70.6315 35.8182C70.6315 33.7182 72.5855 32 74.9736 32C77.3618 32 79.3157 33.7182 79.3157 35.8182C79.3157 37.9182 77.3618 39.6364 74.9736 39.6364ZM74.9736 34.5455C74.1776 34.5455 73.5263 35.1182 73.5263 35.8182C73.5263 36.5182 74.1776 37.0909 74.9736 37.0909C75.7697 37.0909 76.421 36.5182 76.421 35.8182C76.421 35.1182 75.7697 34.5455 74.9736 34.5455Z" fill="#1428A0"/>
</g>
<defs>
<clipPath id="clip0_455_921">
<rect width="55" height="56" fill="white" transform="translate(33 32)"/>
</clipPath>
</defs>
</svg>
