<svg width="120" height="120" viewBox="0 0 120 120" fill="none" xmlns="http://www.w3.org/2000/svg">
<circle cx="60" cy="60" r="60" fill="white"/>
<g clip-path="url(#clip0_455_867)">
<path d="M73.1537 88H46.8242C44.2925 88 42.2302 85.9377 42.2302 83.4061V65.8026H44.4699V83.4061C44.4699 84.7033 45.527 85.7603 46.8242 85.7603H73.1537C74.4509 85.7603 75.5079 84.7033 75.5079 83.4061V56.415H77.7476V83.4061C77.7476 85.9377 75.6853 88 73.1537 88Z" fill="black"/>
<path d="M44.4699 52.5454H42.2302V36.594C42.2302 34.0623 44.2925 32 46.8242 32H73.1537C75.6853 32 77.7476 34.0623 77.7476 36.594V43.5866H75.5079V36.594C75.5079 35.2967 74.4509 34.2397 73.1537 34.2397H46.8242C45.527 34.2397 44.4699 35.2967 44.4699 36.594V52.5454Z" fill="black"/>
<path d="M76.6278 76.7977H43.3501V79.0374H76.6278V76.7977Z" fill="black"/>
<path d="M62.1954 81.2772H57.7788V83.5169H62.1954V81.2772Z" fill="black"/>
<path d="M50.7122 72.481C50.4609 72.481 50.2133 72.3959 50.01 72.2333L43.4277 66.9187H33.1199C32.5026 66.9187 32 66.416 32 65.7988V52.3606C32 51.7397 32.5026 51.2407 33.1199 51.2407H56.5739C57.1911 51.2407 57.6938 51.7434 57.6938 52.3606V65.7988C57.6938 66.416 57.1911 66.9187 56.5739 66.9187H51.8321V71.3611C51.8321 71.7935 51.5845 72.1853 51.1964 72.3701C51.0412 72.444 50.8786 72.481 50.7122 72.481ZM34.2397 64.6789H43.8231C44.0781 64.6789 44.3258 64.7676 44.5253 64.9266L49.5924 69.0142V65.7951C49.5924 65.1742 50.095 64.6753 50.7122 64.6753H55.4541V53.4767H34.2397V64.6753V64.6789Z" fill="#1428A0"/>
<path d="M46.0222 57.9709H43.6753V60.2107H46.0222V57.9709Z" fill="#1428A0"/>
<path d="M40.1568 57.9709H37.8099V60.2107H40.1568V57.9709Z" fill="#1428A0"/>
<path d="M51.8839 57.9709H49.537V60.2107H51.8839V57.9709Z" fill="#1428A0"/>
<path d="M69.2878 63.0934C69.1251 63.0934 68.9588 63.0564 68.8036 62.9825C68.4155 62.7977 68.1679 62.4023 68.1679 61.9735V57.5311H63.4224C62.8052 57.5311 62.3026 57.0284 62.3026 56.4112V42.973C62.3026 42.3521 62.8052 41.8531 63.4224 41.8531H86.8765C87.4937 41.8531 87.9963 42.3558 87.9963 42.973V56.4112C87.9963 57.0284 87.4937 57.5311 86.8765 57.5311H76.5687L69.9863 62.8458C69.783 63.0084 69.5354 63.0934 69.2841 63.0934H69.2878ZM64.5423 55.2914H69.2878C69.905 55.2914 70.4076 55.794 70.4076 56.4112V59.6303L75.471 55.5427C75.6706 55.3801 75.9182 55.2951 76.1732 55.2951H85.7566V44.0965H64.5423V55.2951V55.2914Z" fill="#1428A0"/>
<path d="M76.3247 48.5834H73.9778V50.8231H76.3247V48.5834Z" fill="#1428A0"/>
<path d="M82.1864 48.5834H79.8395V50.8231H82.1864V48.5834Z" fill="#1428A0"/>
<path d="M70.4594 48.5834H68.1125V50.8231H70.4594V48.5834Z" fill="#1428A0"/>
</g>
<defs>
<clipPath id="clip0_455_867">
<rect width="56" height="56" fill="white" transform="translate(32 32)"/>
</clipPath>
</defs>
</svg>
