<svg width="120" height="120" viewBox="0 0 120 120" fill="none" xmlns="http://www.w3.org/2000/svg">
<circle cx="60" cy="60" r="60" fill="white"/>
<g clip-path="url(#clip0_455_890)">
<path d="M84.2713 73.125H35.7287C35.1204 73.125 34.625 72.6405 34.625 72.0455V39.2045C34.625 38.606 35.1204 38.125 35.7287 38.125H84.2713C84.8796 38.125 85.375 38.6095 85.375 39.2045V72.0455C85.375 72.644 84.8796 73.125 84.2713 73.125ZM36.8323 70.966H83.1677V40.284H36.8323V70.966Z" fill="black"/>
<path d="M83.8689 40.3125H36.1311C34.3365 40.3125 32.875 38.7998 32.875 36.9386V33.5609C32.875 32.9417 33.3622 32.4375 33.9604 32.4375H86.0396C86.6378 32.4375 87.125 32.9417 87.125 33.5609V36.9386C87.125 38.7961 85.6635 40.3088 83.8689 40.3088V40.3125ZM35.0457 34.6843V36.9386C35.0457 37.5577 35.5329 38.062 36.1311 38.062H83.8689C84.4671 38.062 84.9543 37.5577 84.9543 36.9386V34.6843H35.0457Z" fill="black"/>
<path d="M60.875 71.375H59.125V87.125H60.875V71.375Z" fill="black"/>
<path d="M70.948 87.125L60.0017 78.2083L49.0521 87.125L47.75 85.4308L59.3507 75.9827C59.7316 75.6724 60.2718 75.6724 60.6528 75.9827L72.25 85.4308L70.948 87.125Z" fill="black"/>
<path d="M44.4772 66.1907L42.9441 64.6705L54.2741 53.4362C54.6968 53.0171 55.3845 53.0171 55.8072 53.4362L61.5277 59.1084L73.6673 47.075H71.3783V44.9226H76.2893C76.7299 44.9226 77.1239 45.1854 77.2923 45.5868C77.4606 45.9881 77.3675 46.4534 77.0559 46.7589L62.2979 61.3922C61.8752 61.8114 61.1874 61.8114 60.7647 61.3922L55.0442 55.72L44.4808 66.1943L44.4772 66.1907Z" fill="#1428A0"/>
<path d="M77.3747 45.9951H75.204V50.8646H77.3747V45.9951Z" fill="#1428A0"/>
</g>
<defs>
<clipPath id="clip0_455_890">
<rect width="56" height="56" fill="white" transform="translate(32 32)"/>
</clipPath>
</defs>
</svg>
