<svg width="120" height="120" viewBox="0 0 120 120" fill="none" xmlns="http://www.w3.org/2000/svg">
<circle cx="60" cy="60" r="60" fill="white"/>
<g clip-path="url(#clip0_455_853)">
<path d="M54.0814 76.1798C48.1812 76.1798 42.6322 73.8808 38.4584 69.7079C29.8447 61.0959 29.8447 47.0839 38.4584 38.4719C42.6322 34.299 48.1812 32 54.0814 32C59.9815 32 65.5305 34.299 69.7043 38.4719C78.3179 47.0839 78.3179 61.0959 69.7043 69.7079C65.5305 73.8808 59.9815 76.1798 54.0814 76.1798ZM54.0814 34.2399C48.7764 34.2399 43.793 36.306 40.0444 40.0539C32.3069 47.7935 32.3069 60.3826 40.0444 68.1222C43.793 71.8701 48.7801 73.9362 54.0814 73.9362C59.3826 73.9362 64.3697 71.8701 68.1183 68.1222C75.8558 60.3826 75.8558 47.7935 68.1183 40.0539C64.3697 36.306 59.3826 34.2399 54.0814 34.2399Z" fill="black"/>
<path d="M69.6308 68.0451L68.0468 69.6288L72.0642 73.6454L73.6482 72.0618L69.6308 68.0451Z" fill="black"/>
<path d="M82.6728 87.9999C81.3087 87.9999 79.9445 87.4825 78.9057 86.4439L69.0758 76.6196C68.8651 76.4089 68.7468 76.1243 68.7468 75.8286C68.7468 75.5329 68.8651 75.2483 69.0758 75.0376L75.0277 69.0869C75.464 68.6507 76.1738 68.6507 76.61 69.0869L86.4362 78.9112C88.5139 80.9921 88.5139 84.3704 86.4362 86.4476C85.3974 87.4862 84.0333 88.0036 82.6691 88.0036L82.6728 87.9999ZM71.4529 75.8249L80.488 84.8582C81.6932 86.0632 83.6525 86.0632 84.854 84.8582C86.0555 83.6533 86.0592 81.6944 84.854 80.4894L75.8189 71.4561L71.4492 75.8249H71.4529Z" fill="black"/>
<path d="M54.0813 55.1598C51.8299 55.1598 49.9372 53.4744 49.6784 51.2419L49.4713 49.4493C49.3235 48.1963 49.7227 46.9396 50.5619 45.9934C51.4011 45.0509 52.6063 44.5076 53.8706 44.5076H54.2847C55.549 44.5076 56.7542 45.0509 57.5933 45.9934C58.4325 46.9359 58.8318 48.1963 58.6839 49.4493L58.4769 51.2419C58.2181 53.4744 56.3253 55.1598 54.0739 55.1598H54.0813ZM53.8743 46.7474C53.2384 46.7474 52.658 47.0061 52.2366 47.4829C51.8152 47.9561 51.6229 48.5622 51.6969 49.1906L51.9039 50.9832C52.0296 52.0883 52.9649 52.9199 54.0776 52.9199C55.1904 52.9199 56.1257 52.0883 56.2514 50.9832L56.4584 49.1906C56.5323 48.5622 56.3438 47.9561 55.9187 47.4829C55.4972 47.0098 54.9168 46.7474 54.281 46.7474H53.8669H53.8743Z" fill="#1428A0"/>
<path d="M64 66.8691H61.7597V62.7997C61.7597 61.3397 60.488 60.0387 58.6617 59.6358C55.6673 58.9742 52.4991 58.9742 49.5083 59.6358C47.6821 60.0387 46.4103 61.336 46.4103 62.7997V66.8691H44.17V62.7997C44.17 60.2789 46.1663 58.0797 49.0277 57.4477C52.3364 56.7158 55.8373 56.7158 59.146 57.4477C62.0074 58.076 64.0037 60.2789 64.0037 62.7997V66.8691H64Z" fill="#1428A0"/>
<path d="M54.0813 70.569C49.8595 70.569 45.634 68.9649 42.4178 65.7493C35.9889 59.3217 35.9889 48.8617 42.4178 42.4304C48.8466 36.0029 59.3087 36.0029 65.7412 42.4304C72.1701 48.858 72.1701 59.3217 65.7412 65.7493C62.5287 68.9649 58.3032 70.569 54.0776 70.569H54.0813ZM54.0813 39.8505C50.4325 39.8505 46.7837 41.2403 44.0037 44.0161C38.4473 49.5713 38.4473 58.6121 44.0037 64.1673C49.5601 69.7226 58.6026 69.7226 64.159 64.1673C69.7153 58.6121 69.7153 49.575 64.159 44.0161C61.3789 41.2403 57.7301 39.8505 54.0813 39.8505Z" fill="black"/>
</g>
<defs>
<clipPath id="clip0_455_853">
<rect width="56" height="56" fill="white" transform="translate(32 32)"/>
</clipPath>
</defs>
</svg>
